{
  "accessors": [
    {
      "bufferView": 2,
      "componentType": 5126,
      "count": 1199,
      "max": [
        18.538799285888672,
        65.536796569824219,
        74.39990234375
      ],
      "min": [
        -16.630699157714844,
        -46.872699737548828,
        -1.2674000263214111
      ],
      "type": "VEC3"
    },
    {
      "bufferView": 2,
      "byteOffset": 14388,
      "componentType": 5126,
      "count": 1199,
      "max": [
        0.99971920251846313,
        0.99882453680038452,
        0.99920964241027832
      ],
      "min": [
        -0.99952250719070435,
        -0.99999034404754639,
        -0.99964076280593872
      ],
      "type": "VEC3"
    },
    {
      "bufferView": 1,
      "componentType": 5126,
      "count": 1199,
      "max": [
        0.94739997386932373,
        0.98059999942779541
      ],
      "min": [
        0.018799999728798866,
        0.01940000057220459
      ],
      "type": "VEC2"
    },
    {
      "bufferView": 3,
      "componentType": 5126,
      "count": 1199,
      "max": [
        0.99901294708251953,
        0.99717617034912109,
        0.99996757507324219,
        1
      ],
      "min": [
        -0.99987798929214478,
        -0.99803268909454346,
        -0.99127113819122314,
        1
      ],
      "type": "VEC4"
    },
    {
      "bufferView": 0,
      "componentType": 5125,
      "count": 4527,
      "max": [
        1198
      ],
      "min": [
        0
      ],
      "type": "SCALAR"
    }
  ],
  "asset": {
    "generator": "Sketchfab (OSG glTF plugin)",
    "version": "2.0"
  },
  "bufferViews": [
    {
      "buffer": 0,
      "byteLength": 18108,
      "byteOffset": 0,
      "name": "ScalarBufferView",
      "target": 34963
    },
    {
      "buffer": 0,
      "byteLength": 9592,
      "byteOffset": 18108,
      "byteStride": 8,
      "name": "Vec3BufferView",
      "target": 34962
    },
    {
      "buffer": 0,
      "byteLength": 28776,
      "byteOffset": 27700,
      "byteStride": 12,
      "name": "Vec4BufferView",
      "target": 34962
    },
    {
      "buffer": 0,
      "byteLength": 19184,
      "byteOffset": 56476,
      "byteStride": 16,
      "name": "MatrixBufferView",
      "target": 34962
    }
  ],
  "buffers": [
    {
      "byteLength": 75660,
      "uri": "scene.bin"
    }
  ],
  "extensionsRequired": [
    "KHR_materials_pbrSpecularGlossiness"
  ],
  "extensionsUsed": [
    "KHR_materials_pbrSpecularGlossiness"
  ],
  "images": [
    {
      "uri": "textures/wire_115115115_diffuse.png"
    }
  ],
  "materials": [
    {
      "doubleSided": true,
      "emissiveFactor": [
        0,
        0,
        0
      ],
      "extensions": {
        "KHR_materials_pbrSpecularGlossiness": {
          "diffuseFactor": [
            1,
            1,
            1,
            1
          ],
          "diffuseTexture": {
            "index": 0,
            "texCoord": 0
          },
          "glossinessFactor": 0,
          "specularFactor": [
            0,
            0,
            0
          ]
        }
      },
      "name": "wire_115115115",
      "occlusionFactor": 1
    }
  ],
  "meshes": [
    {
      "name": "Line001",
      "primitives": [
        {
          "attributes": {
            "NORMAL": 1,
            "POSITION": 0,
            "TANGENT": 3,
            "TEXCOORD_0": 2
          },
          "indices": 4,
          "material": 0,
          "mode": 4
        }
      ]
    }
  ],
  "nodes": [
    {
      "children": [
        1
      ],
      "name": "RootNode (gltf orientation matrix)",
      "rotation": [
        -0.70710678118654746,
        -0,
        -0,
        0.70710678118654757
      ]
    },
    {
      "children": [
        2
      ],
      "name": "RootNode (model correction matrix)"
    },
    {
      "children": [
        3
      ],
      "name": "dog_with_bomb_low_max.obj.cleaner"
    },
    {
      "mesh": 0,
      "name": "Line001"
    }
  ],
  "samplers": [
    {
      "magFilter": 9729,
      "minFilter": 9987,
      "wrapS": 10497,
      "wrapT": 10497
    }
  ],
  "scene": 0,
  "scenes": [
    {
      "name": "OSG_Scene",
      "nodes": [
        0
      ]
    }
  ],
  "textures": [
    {
      "sampler": 0,
      "source": 0
    }
  ]
}

