{"accessors":{"accessor_0":{"bufferView":"bufferView_0","byteOffset":0,"byteStride":0,"componentType":5126,"count":17616,"min":[-1.3309550285339355,-1.2726600170135498,-1.6134079694747925],"max":[2.528140068054199,3.0168778896331787,1.7293009757995605],"type":"VEC3"},"accessor_1":{"bufferView":"bufferView_0","byteOffset":211392,"byteStride":0,"componentType":5126,"count":17616,"min":[-0.9997000098228455,-0.9934999942779541,-0.9998999834060669],"max":[0.9991999864578247,0.9973999857902527,0.9998999834060669],"type":"VEC3"},"accessor_2":{"bufferView":"bufferView_0","byteOffset":422784,"byteStride":0,"componentType":5126,"count":17616,"min":[0.0005810000002384186,0.00023999999393709004],"max":[0.9947220087051392,0.9943810105323792],"type":"VEC2"},"accessor_3":{"bufferView":"bufferView_1","byteOffset":0,"byteStride":0,"componentType":5123,"count":26424,"min":[0],"max":[17615],"type":"SCALAR"}},"asset":{"generator":"obj2gltf","profile":{"api":"WebGL","version":"1.0"},"version":"1.0","premultipliedAlpha":true},"buffers":{"buffer":{"byteLength":616560,"uri":"data:application/octet-stream;base64,","type":"arraybuffer"}},"bufferViews":{"bufferView_0":{"buffer":"buffer","byteLength":563712,"byteOffset":0,"target":34962},"bufferView_1":{"buffer":"buffer","byteLength":52848,"byteOffset":563712,"target":34963}},"extensionsUsed":[],"images":{"hand_mapNew":{"name":"hand_mapNew","uri":"data:image/jpeg;base64,"}},"materials":{"defaultMat":{"technique":"technique0","values":{"ambient":[0,0,0,1],"diffuse":"texture_hand_mapNew","emission":[0,0,0,1],"specular":[0.5,0.5,0.5,1],"shininess":96.078431,"transparency":1}}},"meshes":{"ZBrushPolyMesh3D-Mesh":{"name":"ZBrushPolyMesh3D-Mesh","primitives":[{"attributes":{"POSITION":"accessor_0","NORMAL":"accessor_1","TEXCOORD_0":"accessor_2"},"indices":"accessor_3","material":"defaultMat","mode":4}]}},"nodes":{"ZBrushPolyMesh3D":{"name":"ZBrushPolyMesh3D","meshes":["ZBrushPolyMesh3D-Mesh"],"children":[],"matrix":[1,0,0,0,0,1,0,0,0,0,1,0,0,0,0,1]}},"samplers":{"sampler":{"magFilter":9729,"minFilter":9729,"wrapS":10497,"wrapT":10497}},"scene":"scene","scenes":{"scene":{"nodes":["ZBrushPolyMesh3D"]}},"textures":{"texture_hand_mapNew":{"format":6407,"internalFormat":6407,"sampler":"sampler","source":"hand_mapNew","target":3553,"type":5121}},"animations":{},"cameras":{},"programs":{"program0":{"attributes":["a_position","a_normal","a_texcoord_0"],"fragmentShader":"fragmentShader0","vertexShader":"vertexShader0"}},"shaders":{"vertexShader0":{"type":35633,"uri":"data:text/plain;base64,"},"fragmentShader0":{"type":35632,"uri":"data:text/plain;base64,"}},"techniques":{"technique0":{"attributes":{"a_position":"position","a_normal":"normal","a_texcoord_0":"texcoord_0"},"parameters":{"modelViewMatrix":{"semantic":"MODELVIEW","type":35676},"projectionMatrix":{"semantic":"PROJECTION","type":35676},"normalMatrix":{"semantic":"MODELVIEWINVERSETRANSPOSE","type":35675},"ambient":{"type":35666},"diffuse":{"type":35678},"emission":{"type":35666},"specular":{"type":35666},"shininess":{"type":5126},"transparency":{"type":5126},"position":{"semantic":"POSITION","type":35665},"normal":{"semantic":"NORMAL","type":35665},"texcoord_0":{"semantic":"TEXCOORD_0","type":35664}},"program":"program0","states":{"enable":[2884,2929]},"uniforms":{"u_modelViewMatrix":"modelViewMatrix","u_projectionMatrix":"projectionMatrix","u_normalMatrix":"normalMatrix","u_ambient":"ambient","u_diffuse":"diffuse","u_emission":"emission","u_specular":"specular","u_shininess":"shininess","u_transparency":"transparency"}}}}
