{"accessors":[{"bufferView":2,"componentType":5126,"count":1728,"max":[3.4553332328796387,61.231357574462891,55.674293518066406],"min":[-3.4552645683288574,-26.970605850219727,20.392581939697266],"type":"VEC3"},{"bufferView":2,"byteOffset":20736,"componentType":5126,"count":1728,"max":[0.27417480945587158,0.57259005308151245,0.4298701286315918],"min":[-0.27416124939918518,-0.58125323057174683,-0.4678131639957428],"type":"VEC3"},{"bufferView":1,"componentType":5126,"count":1728,"max":[0.98303598165512085,0.9849969744682312],"min":[0.02044299989938736,0.019762000069022179],"type":"VEC2"},{"bufferView":3,"componentType":5126,"count":1728,"max":[0.99393975734710693,0.99997633695602417,0.89298439025878906,1],"min":[-0.9994245171546936,-0.99993538856506348,-0.89309680461883545,1],"type":"VEC4"},{"bufferView":0,"componentType":5125,"count":1728,"max":[1727],"min":[0],"type":"SCALAR"}],"asset":{"generator":"Sketchfab (OSG glTF plugin)","version":"2.0"},"bufferViews":[{"buffer":0,"byteLength":6912,"byteOffset":0,"name":"ScalarBufferView","target":34962},{"buffer":0,"byteLength":13824,"byteOffset":6912,"byteStride":8,"name":"Vec2BufferView","target":34962},{"buffer":0,"byteLength":41472,"byteOffset":20736,"byteStride":12,"name":"Vec3BufferView","target":34962},{"buffer":0,"byteLength":27648,"byteOffset":62208,"byteStride":16,"name":"Vec4BufferView","target":34962}],"buffers":[{"byteLength":89856,"uri":"scene.bin"}],"images":[{"uri":"textures\/fox_material_baseColor.png"}],"materials":[{"doubleSided":true,"emissiveFactor":[0,0,0],"name":"fox_material","pbrMetallicRoughness":{"baseColorFactor":[1,1,1,1],"baseColorTexture":{"index":0,"texCoord":0},"metallicFactor":0,"roughnessFactor":0.57999999999999996}}],"meshes":[{"name":"fox1","primitives":[{"attributes":{"NORMAL":1,"POSITION":0,"TANGENT":3,"TEXCOORD_0":2},"indices":4,"material":0,"mode":4}]}],"nodes":[{"children":[1],"name":"RootNode (gltf orientation matrix)","rotation":[-0.70710678118654746,-0,-0,0.70710678118654757]},{"children":[2],"name":"RootNode (model correction matrix)"},{"children":[3],"matrix":[1,0,0,0,0,0,1,0,0,-1,0,0,0,0,0,1],"name":"animations.FBX"},{"children":[4],"name":""},{"children":[5],"name":"RootNode"},{"children":[6,8],"name":""},{"children":[7],"matrix":[0.99999999999999989,-1.3234889800848443e-23,2.6469779601696886e-23,0,2.6469779601696886e-23,6.1232339957367648e-17,-0.99999999999999989,0,1.3234889800848441e-23,0.99999999999999989,6.1232339957367648e-17,0,0,0,-1.1102230246251565e-16,1],"name":""},{"mesh":0,"name":"fox1"},{"matrix":[1,0,0,0,0,2.2204460492503131e-16,-1,0,0,1,2.2204460492503131e-16,0,0,0,0,1],"name":"fox1"}],"samplers":[{"magFilter":9729,"minFilter":9987,"wrapS":10497,"wrapT":10497}],"scene":0,"scenes":[{"name":"OSG_Scene","nodes":[0]}],"textures":[{"sampler":0,"source":0}]}
