{
  "accessors": [
    {
      "name": "Node-Mesh_positions",
      "componentType": 5126,
      "count": 2192,
      "min": [
        -0.5424379706382751,
        -0.40362611413002014,
        -0.13410520553588867
      ],
      "max": [
        0.13937979936599731,
        1.0205789804458618,
        0.45042988657951355
      ],
      "type": "VEC3",
      "bufferView": 0,
      "byteOffset": 0
    },
    {
      "name": "Node-Mesh_normals",
      "componentType": 5126,
      "count": 2192,
      "min": [
        -0.993556022644043,
        -0.9999076128005981,
        -0.9990125894546509
      ],
      "max": [
        0.9933648109436035,
        0.988183319568634,
        0.9918699264526367
      ],
      "type": "VEC3",
      "bufferView": 0,
      "byteOffset": 26304
    },
    {
      "name": "Node-Mesh_0_indices",
      "componentType": 5123,
      "count": 2202,
      "min": [
        0
      ],
      "max": [
        1447
      ],
      "type": "SCALAR",
      "bufferView": 1,
      "byteOffset": 0
    },
    {
      "name": "Node-Mesh_1_indices",
      "componentType": 5123,
      "count": 264,
      "min": [
        1448
      ],
      "max": [
        1615
      ],
      "type": "SCALAR",
      "bufferView": 1,
      "byteOffset": 4404
    },
    {
      "name": "Node-Mesh_2_indices",
      "componentType": 5123,
      "count": 36,
      "min": [
        1616
      ],
      "max": [
        1639
      ],
      "type": "SCALAR",
      "bufferView": 1,
      "byteOffset": 4932
    },
    {
      "name": "Node-Mesh_3_indices",
      "componentType": 5123,
      "count": 576,
      "min": [
        1640
      ],
      "max": [
        2047
      ],
      "type": "SCALAR",
      "bufferView": 1,
      "byteOffset": 5004
    },
    {
      "name": "Node-Mesh_4_indices",
      "componentType": 5123,
      "count": 198,
      "min": [
        2048
      ],
      "max": [
        2191
      ],
      "type": "SCALAR",
      "bufferView": 1,
      "byteOffset": 6156
    }
  ],
  "asset": {
    "generator": "obj2gltf",
    "version": "2.0"
  },
  "buffers": [
    {
      "name": "model",
      "byteLength": 59160,
      "uri": "data:application/octet-stream;base64,"
    }
  ],
  "bufferViews": [
    {
      "name": "bufferView_0",
      "buffer": 0,
      "byteLength": 52608,
      "byteOffset": 0,
      "byteStride": 12,
      "target": 34962
    },
    {
      "name": "bufferView_1",
      "buffer": 0,
      "byteLength": 6552,
      "byteOffset": 52608,
      "target": 34963
    }
  ],
  "materials": [
    {
      "name": "mat21",
      "pbrMetallicRoughness": {
        "baseColorFactor": [
          1,
          1,
          1,
          1
        ],
        "metallicFactor": 0,
        "roughnessFactor": 1
      },
      "emissiveFactor": [
        0,
        0,
        0
      ],
      "alphaMode": "OPAQUE",
      "doubleSided": false
    },
    {
      "name": "mat8",
      "pbrMetallicRoughness": {
        "baseColorFactor": [
          0.96,
          0.26,
          0.21,
          1
        ],
        "metallicFactor": 0,
        "roughnessFactor": 1
      },
      "emissiveFactor": [
        0,
        0,
        0
      ],
      "alphaMode": "OPAQUE",
      "doubleSided": false
    },
    {
      "name": "mat18",
      "pbrMetallicRoughness": {
        "baseColorFactor": [
          1,
          0.8,
          0.53,
          1
        ],
        "metallicFactor": 0,
        "roughnessFactor": 1
      },
      "emissiveFactor": [
        0,
        0,
        0
      ],
      "alphaMode": "OPAQUE",
      "doubleSided": false
    },
    {
      "name": "mat12",
      "pbrMetallicRoughness": {
        "baseColorFactor": [
          1,
          0.92,
          0.23,
          1
        ],
        "metallicFactor": 0,
        "roughnessFactor": 1
      },
      "emissiveFactor": [
        0,
        0,
        0
      ],
      "alphaMode": "OPAQUE",
      "doubleSided": false
    },
    {
      "name": "mat13",
      "pbrMetallicRoughness": {
        "baseColorFactor": [
          1,
          0.6,
          0,
          1
        ],
        "metallicFactor": 0,
        "roughnessFactor": 1
      },
      "emissiveFactor": [
        0,
        0,
        0
      ],
      "alphaMode": "OPAQUE",
      "doubleSided": false
    }
  ],
  "meshes": [
    {
      "name": "Node-Mesh",
      "primitives": [
        {
          "attributes": {
            "POSITION": 0,
            "NORMAL": 1
          },
          "indices": 2,
          "material": 0,
          "mode": 4
        },
        {
          "attributes": {
            "POSITION": 0,
            "NORMAL": 1
          },
          "indices": 3,
          "material": 1,
          "mode": 4
        },
        {
          "attributes": {
            "POSITION": 0,
            "NORMAL": 1
          },
          "indices": 4,
          "material": 2,
          "mode": 4
        },
        {
          "attributes": {
            "POSITION": 0,
            "NORMAL": 1
          },
          "indices": 5,
          "material": 3,
          "mode": 4
        },
        {
          "attributes": {
            "POSITION": 0,
            "NORMAL": 1
          },
          "indices": 6,
          "material": 4,
          "mode": 4
        }
      ]
    }
  ],
  "nodes": [
    {
      "name": "Node",
      "mesh": 0
    }
  ],
  "scene": 0,
  "scenes": [
    {
      "nodes": [
        0
      ]
    }
  ]
}
