# Blender v2.78 (sub 0) OBJ File: 'hall.blend'
# www.blender.org
mtllib hall.mtl
o Cylinder.003
v -1.000000 0.000000 6.074624
v 1.000000 0.000000 6.074624
v -1.000000 0.000000 -6.074623
v 1.000000 0.000000 -6.074623
v -0.708114 1.661730 6.074624
v -0.708114 -0.338270 6.074624
v -0.708114 1.661730 -6.074623
v -0.708114 -0.338270 -6.074623
v 0.771105 -0.348965 6.074624
v 0.771105 1.651035 6.074624
v 0.771105 -0.348965 -6.074623
v 0.771105 1.651035 -6.074623
v -1.085833 0.812326 0.062551
v 0.914167 0.812326 0.062551
v -1.085833 0.777685 0.082551
v 0.914167 0.777685 0.082551
v -1.085833 0.777685 0.122551
v 0.914167 0.777685 0.122551
v -1.085833 0.812326 0.142551
v 0.914167 0.812326 0.142551
v -1.085833 0.846967 0.122551
v 0.914167 0.846968 0.122551
v -1.085833 0.846967 0.082551
v 0.914167 0.846968 0.082551
v -1.085833 0.812326 -0.937449
v 0.914167 0.812326 -0.937449
v -1.085833 0.777685 -0.917449
v 0.914167 0.777685 -0.917449
v -1.085833 0.777685 -0.877449
v 0.914167 0.777685 -0.877449
v -1.085833 0.812326 -0.857449
v 0.914167 0.812326 -0.857449
v -1.085833 0.846967 -0.877449
v 0.914167 0.846968 -0.877449
v -1.085833 0.846967 -0.917449
v 0.914167 0.846968 -0.917449
v -1.085833 0.812326 -1.937449
v 0.914167 0.812326 -1.937449
v -1.085833 0.777685 -1.917449
v 0.914167 0.777685 -1.917449
v -1.085833 0.777685 -1.877449
v 0.914167 0.777685 -1.877449
v -1.085833 0.812326 -1.857449
v 0.914167 0.812326 -1.857449
v -1.085833 0.846967 -1.877449
v 0.914167 0.846968 -1.877449
v -1.085833 0.846967 -1.917449
v 0.914167 0.846968 -1.917449
v -1.085833 0.812326 -2.937449
v 0.914167 0.812326 -2.937449
v -1.085833 0.777685 -2.917449
v 0.914167 0.777685 -2.917449
v -1.085833 0.777685 -2.877449
v 0.914167 0.777685 -2.877449
v -1.085833 0.812326 -2.857449
v 0.914167 0.812326 -2.857449
v -1.085833 0.846967 -2.877449
v 0.914167 0.846967 -2.877449
v -1.085833 0.846967 -2.917449
v 0.914167 0.846967 -2.917449
vt 0.6410 1.0000
vt 0.3205 1.0000
vt 0.3205 0.0000
vt 0.6410 0.0000
vt 0.6410 0.0000
vt 0.9615 0.0000
vt 0.9615 1.0000
vt 0.6410 1.0000
vt 0.3205 1.0000
vt 0.0000 1.0000
vt 0.0000 0.0000
vt 0.3205 0.0000
vt 0.9615 0.4939
vt 0.9615 0.3292
vt 0.9647 0.3292
vt 0.9647 0.4939
vt 0.9712 0.3292
vt 0.9712 0.4939
vt 0.9744 0.3292
vt 0.9744 0.4939
vt 0.9744 0.1646
vt 0.9744 0.0000
vt 0.9776 0.0000
vt 0.9776 0.1646
vt 0.9671 0.5070
vt 0.9615 0.5054
vt 0.9615 0.5021
vt 0.9671 0.5004
vt 0.9726 0.5021
vt 0.9726 0.5054
vt 0.9840 0.0000
vt 0.9840 0.1646
vt 0.9872 0.0000
vt 0.9872 0.1646
vt 0.9893 0.5004
vt 0.9837 0.4988
vt 0.9837 0.4955
vt 0.9893 0.4939
vt 0.9948 0.4955
vt 0.9948 0.4988
vt 0.9872 0.3292
vt 0.9872 0.1646
vt 0.9904 0.1646
vt 0.9904 0.3292
vt 0.9968 0.1646
vt 0.9968 0.3292
vt 1.0000 0.1646
vt 1.0000 0.3292
vt 0.9872 0.1646
vt 0.9872 0.0000
vt 0.9904 0.0000
vt 0.9904 0.1646
vt 0.9927 0.3292
vt 0.9983 0.3309
vt 0.9983 0.3342
vt 0.9927 0.3358
vt 0.9872 0.3342
vt 0.9872 0.3309
vt 0.9968 0.0000
vt 0.9968 0.1646
vt 1.0000 0.0000
vt 1.0000 0.1646
vt 0.9837 0.5021
vt 0.9893 0.5004
vt 0.9948 0.5021
vt 0.9948 0.5054
vt 0.9893 0.5070
vt 0.9837 0.5054
vt 0.9872 0.1646
vt 0.9872 0.3292
vt 0.9840 0.3292
vt 0.9840 0.1646
vt 0.9776 0.3292
vt 0.9776 0.1646
vt 0.9744 0.3292
vt 0.9744 0.1646
vt 0.9615 0.3292
vt 0.9615 0.1646
vt 0.9647 0.1646
vt 0.9647 0.3292
vt 0.9872 0.3408
vt 0.9872 0.3375
vt 0.9927 0.3358
vt 0.9983 0.3375
vt 0.9983 0.3408
vt 0.9927 0.3424
vt 0.9712 0.1646
vt 0.9712 0.3292
vt 0.9744 0.1646
vt 0.9744 0.3292
vt 0.9671 0.5004
vt 0.9615 0.4988
vt 0.9615 0.4955
vt 0.9671 0.4939
vt 0.9726 0.4955
vt 0.9726 0.4988
vt 0.9872 0.3292
vt 0.9872 0.4939
vt 0.9840 0.4939
vt 0.9840 0.3292
vt 0.9776 0.4939
vt 0.9776 0.3292
vt 0.9744 0.4939
vt 0.9744 0.3292
vt 0.9615 0.1646
vt 0.9615 0.0000
vt 0.9647 0.0000
vt 0.9647 0.1646
vt 0.9726 0.4955
vt 0.9782 0.4939
vt 0.9837 0.4955
vt 0.9837 0.4988
vt 0.9782 0.5004
vt 0.9726 0.4988
vt 0.9712 0.0000
vt 0.9712 0.1646
vt 0.9744 0.0000
vt 0.9744 0.1646
vt 0.9782 0.5070
vt 0.9726 0.5054
vt 0.9726 0.5021
vt 0.9782 0.5004
vt 0.9837 0.5021
vt 0.9837 0.5054
vn 0.0000 1.0000 0.0000
vn 1.0000 0.0000 0.0000
vn -1.0000 0.0000 0.0000
vn 0.0000 -0.5000 -0.8660
vn 0.0000 -1.0000 0.0000
vn 0.0000 -0.5000 0.8660
vn -0.0000 0.5000 0.8660
vn -0.0000 0.5000 -0.8660
usemtl Material
s off
f 1/1/1 2/2/1 4/3/1 3/4/1
f 5/5/2 6/6/2 8/7/2 7/8/2
f 9/9/3 10/10/3 12/11/3 11/12/3
f 13/13/4 14/14/4 16/15/4 15/16/4
f 15/16/5 16/15/5 18/17/5 17/18/5
f 17/18/6 18/17/6 20/19/6 19/20/6
f 19/21/7 20/22/7 22/23/7 21/24/7
f 16/25/2 14/26/2 24/27/2 22/28/2 20/29/2 18/30/2
f 21/24/1 22/23/1 24/31/1 23/32/1
f 23/32/8 24/31/8 14/33/8 13/34/8
f 13/35/3 15/36/3 17/37/3 19/38/3 21/39/3 23/40/3
f 25/41/4 26/42/4 28/43/4 27/44/4
f 27/44/5 28/43/5 30/45/5 29/46/5
f 29/46/6 30/45/6 32/47/6 31/48/6
f 31/49/7 32/50/7 34/51/7 33/52/7
f 28/53/2 26/54/2 36/55/2 34/56/2 32/57/2 30/58/2
f 33/52/1 34/51/1 36/59/1 35/60/1
f 35/60/8 36/59/8 26/61/8 25/62/8
f 25/63/3 27/64/3 29/65/3 31/66/3 33/67/3 35/68/3
f 37/69/4 38/70/4 40/71/4 39/72/4
f 39/72/5 40/71/5 42/73/5 41/74/5
f 41/74/6 42/73/6 44/75/6 43/76/6
f 43/77/7 44/78/7 46/79/7 45/80/7
f 40/81/2 38/82/2 48/83/2 46/84/2 44/85/2 42/86/2
f 45/80/1 46/79/1 48/87/1 47/88/1
f 47/88/8 48/87/8 38/89/8 37/90/8
f 37/91/3 39/92/3 41/93/3 43/94/3 45/95/3 47/96/3
f 49/97/4 50/98/4 52/99/4 51/100/4
f 51/100/5 52/99/5 54/101/5 53/102/5
f 53/102/6 54/101/6 56/103/6 55/104/6
f 55/105/7 56/106/7 58/107/7 57/108/7
f 52/109/2 50/110/2 60/111/2 58/112/2 56/113/2 54/114/2
f 57/108/1 58/107/1 60/115/1 59/116/1
f 59/116/8 60/115/8 50/117/8 49/118/8
f 49/119/3 51/120/3 53/121/3 55/122/3 57/123/3 59/124/3
