{"accessors":{"accessor_0":{"bufferView":"bufferView_0","byteOffset":0,"byteStride":0,"componentType":5126,"count":148,"min":[-0.20000000298023224,-1.7302789688110352,-2.455409049987793],"max":[0.20000000298023224,-0.19616399705410004,-0.9212949872016907],"type":"VEC3"},"accessor_1":{"bufferView":"bufferView_0","byteOffset":1776,"byteStride":0,"componentType":5126,"count":148,"min":[0,0],"max":[1,1],"type":"VEC2"},"accessor_2":{"bufferView":"bufferView_1","byteOffset":0,"byteStride":0,"componentType":5123,"count":432,"min":[0],"max":[147],"type":"SCALAR"},"accessor_3":{"bufferView":"bufferView_0","byteOffset":2960,"byteStride":0,"componentType":5126,"count":20,"min":[-0.09264799952507019,-2.888118028640747,-3.789033889770508],"max":[0.09264799952507019,-0.41870400309562683,-1.2557120323181152],"type":"VEC3"},"accessor_4":{"bufferView":"bufferView_0","byteOffset":3200,"byteStride":0,"componentType":5126,"count":20,"min":[0,0],"max":[1,1],"type":"VEC2"},"accessor_5":{"bufferView":"bufferView_1","byteOffset":864,"byteStride":0,"componentType":5123,"count":36,"min":[0],"max":[19],"type":"SCALAR"},"accessor_6":{"bufferView":"bufferView_0","byteOffset":3360,"byteStride":0,"componentType":5126,"count":20,"min":[-0.1982879936695099,-3.3131558895111084,-4.227427959442139],"max":[0.1982879936695099,-2.0291640758514404,-2.9467079639434814],"type":"VEC3"},"accessor_7":{"bufferView":"bufferView_0","byteOffset":3600,"byteStride":0,"componentType":5126,"count":20,"min":[0,0],"max":[1,1],"type":"VEC2"},"accessor_8":{"bufferView":"bufferView_1","byteOffset":936,"byteStride":0,"componentType":5123,"count":36,"min":[0],"max":[19],"type":"SCALAR"},"accessor_9":{"bufferView":"bufferView_0","byteOffset":3760,"byteStride":0,"componentType":5126,"count":431,"min":[-1.1364200115203857,-0.9684450030326843,-2.931960105895996],"max":[1.1364200115203857,1.4832559823989868,3.1195731163024902],"type":"VEC3"},"accessor_10":{"bufferView":"bufferView_0","byteOffset":8932,"byteStride":0,"componentType":5126,"count":431,"min":[0,0],"max":[1,1],"type":"VEC2"},"accessor_11":{"bufferView":"bufferView_1","byteOffset":1008,"byteStride":0,"componentType":5123,"count":1596,"min":[0],"max":[430],"type":"SCALAR"}},"asset":{"generator":"obj2gltf","profile":{"api":"WebGL","version":"1.0"},"version":"1.0","premultipliedAlpha":true},"buffers":{"buffer":{"byteLength":16580,"uri":"data:application/octet-stream;base64,","type":"arraybuffer"}},"bufferViews":{"bufferView_0":{"buffer":"buffer","byteLength":12380,"byteOffset":0,"target":34962},"bufferView_1":{"buffer":"buffer","byteLength":4200,"byteOffset":12380,"target":34963}},"extensionsUsed":[],"images":{},"materials":{"coque":{"technique":"technique0","values":{"ambient":[0,0,0,1],"diffuse":[0,0,0,1],"emission":[0.5,0.5,0.5,1],"specular":[0,0,0,1],"shininess":0,"transparency":1}}},"meshes":{"bras Cylindre_1":{"name":"bras Cylindre_1","primitives":[{"attributes":{"POSITION":"accessor_0","TEXCOORD_0":"accessor_1"},"indices":"accessor_2","material":"coque","mode":4}]},"bras Cube_1":{"name":"bras Cube_1","primitives":[{"attributes":{"POSITION":"accessor_3","TEXCOORD_0":"accessor_4"},"indices":"accessor_5","material":"coque","mode":4}]},"bras Cube_1_1":{"name":"bras Cube_1_1","primitives":[{"attributes":{"POSITION":"accessor_6","TEXCOORD_0":"accessor_7"},"indices":"accessor_8","material":"coque","mode":4}]},"camera1_1":{"name":"camera1_1","primitives":[{"attributes":{"POSITION":"accessor_9","TEXCOORD_0":"accessor_10"},"indices":"accessor_11","material":"coque","mode":4}]}},"nodes":{"bras Cylindre":{"name":"bras Cylindre","meshes":["bras Cylindre_1"],"children":[],"matrix":[1,0,0,0,0,1,0,0,0,0,1,0,0,0,0,1]},"bras Cube":{"name":"bras Cube","meshes":["bras Cube_1"],"children":[],"matrix":[1,0,0,0,0,1,0,0,0,0,1,0,0,0,0,1]},"bras Cube_1":{"name":"bras Cube_1","meshes":["bras Cube_1_1"],"children":[],"matrix":[1,0,0,0,0,1,0,0,0,0,1,0,0,0,0,1]},"camera1":{"name":"camera1","meshes":["camera1_1"],"children":[],"matrix":[1,0,0,0,0,1,0,0,0,0,1,0,0,0,0,1]}},"samplers":{},"scene":"scene","scenes":{"scene":{"nodes":["bras Cylindre","bras Cube","bras Cube_1","camera1"]}},"textures":{},"animations":{},"cameras":{},"programs":{"program0":{"attributes":["a_position","a_texcoord_0"],"fragmentShader":"fragmentShader0","vertexShader":"vertexShader0"}},"shaders":{"vertexShader0":{"type":35633,"uri":"data:text/plain;base64,"},"fragmentShader0":{"type":35632,"uri":"data:text/plain;base64,"}},"skins":{},"techniques":{"technique0":{"attributes":{"a_position":"position","a_texcoord_0":"texcoord_0"},"parameters":{"modelViewMatrix":{"semantic":"MODELVIEW","type":35676},"projectionMatrix":{"semantic":"PROJECTION","type":35676},"ambient":{"type":35666},"diffuse":{"type":35666},"emission":{"type":35666},"specular":{"type":35666},"shininess":{"type":5126},"transparency":{"type":5126},"position":{"semantic":"POSITION","type":35665},"texcoord_0":{"semantic":"TEXCOORD_0","type":5126}},"program":"program0","states":{"enable":[2884,2929]},"uniforms":{"u_modelViewMatrix":"modelViewMatrix","u_projectionMatrix":"projectionMatrix","u_ambient":"ambient","u_diffuse":"diffuse","u_emission":"emission","u_specular":"specular","u_shininess":"shininess","u_transparency":"transparency"}}}}
