{
  "accessors": [
    {
      "bufferView": 2,
      "componentType": 5126,
      "count": 2842,
      "max": [
        1.7314900159835815,
        3.1322300434112549,
        2.9999799728393555
      ],
      "min": [
        -3.0653200149536133,
        -2.8804900646209717,
        -0.010400000028312206
      ],
      "type": "VEC3"
    },
    {
      "bufferView": 2,
      "byteOffset": 34104,
      "componentType": 5126,
      "count": 2842,
      "max": [
        0.9989054799079895,
        0.9965549111366272,
        0.99999004602432251
      ],
      "min": [
        -0.9996635913848877,
        -0.99606120586395264,
        -0.99998468160629272
      ],
      "type": "VEC3"
    },
    {
      "bufferView": 2,
      "byteOffset": 68208,
      "componentType": 5126,
      "count": 2842,
      "max": [
        1,
        1,
        1
      ],
      "min": [
        1,
        1,
        1
      ],
      "type": "VEC3"
    },
    {
      "bufferView": 1,
      "componentType": 5126,
      "count": 2842,
      "max": [
        0.99861001968383789,
        0.99726998805999756
      ],
      "min": [
        0.00041999999666586518,
        0.0017300000181421638
      ],
      "type": "VEC2"
    },
    {
      "bufferView": 3,
      "componentType": 5126,
      "count": 2842,
      "max": [
        0.99949884414672852,
        0.99962681531906128,
        0.99993079900741577,
        1
      ],
      "min": [
        -0.99984991550445557,
        -0.99866437911987305,
        -0.99827390909194946,
        -1
      ],
      "type": "VEC4"
    },
    {
      "bufferView": 0,
      "componentType": 5125,
      "count": 13683,
      "max": [
        2841
      ],
      "min": [
        0
      ],
      "type": "SCALAR"
    },
    {
      "bufferView": 2,
      "byteOffset": 102312,
      "componentType": 5126,
      "count": 1708,
      "max": [
        1.7396800518035889,
        2.9047000408172607,
        2.7106599807739258
      ],
      "min": [
        -3.0733499526977539,
        -2.8901300430297852,
        -0.0093599995598196983
      ],
      "type": "VEC3"
    },
    {
      "bufferView": 2,
      "byteOffset": 122808,
      "componentType": 5126,
      "count": 1708,
      "max": [
        0.99967801570892334,
        0.99621409177780151,
        0.99998468160629272
      ],
      "min": [
        -0.99926859140396118,
        -0.99674844741821289,
        -0.99999004602432251
      ],
      "type": "VEC3"
    },
    {
      "bufferView": 2,
      "byteOffset": 143304,
      "componentType": 5126,
      "count": 1708,
      "max": [
        1,
        1,
        1
      ],
      "min": [
        1,
        1,
        1
      ],
      "type": "VEC3"
    },
    {
      "bufferView": 3,
      "byteOffset": 45472,
      "componentType": 5126,
      "count": 1708,
      "max": [
        0.99992489814758301,
        0.99960833787918091,
        0.99992954730987549,
        1
      ],
      "min": [
        -0.99993693828582764,
        -0.99665135145187378,
        -0.99863153696060181,
        -1
      ],
      "type": "VEC4"
    },
    {
      "bufferView": 0,
      "byteOffset": 54732,
      "componentType": 5125,
      "count": 8469,
      "max": [
        1707
      ],
      "min": [
        0
      ],
      "type": "SCALAR"
    },
    {
      "bufferView": 2,
      "byteOffset": 163800,
      "componentType": 5126,
      "count": 115,
      "max": [
        0.97013002634048462,
        0.35352000594139099,
        1.2694300413131714
      ],
      "min": [
        0.32883000373840332,
        -0.76309001445770264,
        0.72319000959396362
      ],
      "type": "VEC3"
    },
    {
      "bufferView": 2,
      "byteOffset": 165180,
      "componentType": 5126,
      "count": 115,
      "max": [
        0.99675792455673218,
        0.5020788311958313,
        0.83844798803329468
      ],
      "min": [
        0.41320270299911499,
        -0.84049063920974731,
        -0.51228427886962891
      ],
      "type": "VEC3"
    },
    {
      "bufferView": 2,
      "byteOffset": 166560,
      "componentType": 5126,
      "count": 115,
      "max": [
        1,
        1,
        1
      ],
      "min": [
        1,
        1,
        1
      ],
      "type": "VEC3"
    },
    {
      "bufferView": 3,
      "byteOffset": 72800,
      "componentType": 5126,
      "count": 115,
      "max": [
        0,
        0,
        0,
        1
      ],
      "min": [
        0,
        0,
        0,
        1
      ],
      "type": "VEC4"
    },
    {
      "bufferView": 0,
      "byteOffset": 88608,
      "componentType": 5125,
      "count": 315,
      "max": [
        114
      ],
      "min": [
        0
      ],
      "type": "SCALAR"
    }
  ],
  "asset": {
    "generator": "Sketchfab (OSG glTF plugin)",
    "version": "2.0"
  },
  "bufferViews": [
    {
      "buffer": 0,
      "byteLength": 89868,
      "byteOffset": 0,
      "name": "ScalarBufferView",
      "target": 34963
    },
    {
      "buffer": 0,
      "byteLength": 22736,
      "byteOffset": 89868,
      "byteStride": 8,
      "name": "Vec3BufferView",
      "target": 34962
    },
    {
      "buffer": 0,
      "byteLength": 167940,
      "byteOffset": 112604,
      "byteStride": 12,
      "name": "Vec4BufferView",
      "target": 34962
    },
    {
      "buffer": 0,
      "byteLength": 74640,
      "byteOffset": 280544,
      "byteStride": 16,
      "name": "MatrixBufferView",
      "target": 34962
    }
  ],
  "buffers": [
    {
      "byteLength": 355184,
      "uri": "scene.bin"
    }
  ],
  "extensionsRequired": [
    "KHR_materials_pbrSpecularGlossiness"
  ],
  "extensionsUsed": [
    "KHR_materials_pbrSpecularGlossiness"
  ],
  "images": [
    {
      "uri": "textures/step4_diffuse.jpeg"
    }
  ],
  "materials": [
    {
      "doubleSided": false,
      "emissiveFactor": [
        0.20000000000000001,
        0.20000000000000001,
        0.20000000000000001
      ],
      "extensions": {
        "KHR_materials_pbrSpecularGlossiness": {
          "diffuseFactor": [
            1,
            0.96020838269999997,
            0,
            1
          ],
          "glossinessFactor": 0,
          "specularFactor": [
            0,
            0,
            0
          ]
        }
      },
      "name": "mouth"
    },
    {
      "doubleSided": false,
      "extensions": {
        "KHR_materials_pbrSpecularGlossiness": {
          "diffuseFactor": [
            0,
            0,
            0,
            1
          ],
          "glossinessFactor": 0,
          "specularFactor": [
            0,
            0,
            0
          ]
        }
      },
      "name": "outline"
    },
    {
      "doubleSided": false,
      "extensions": {
        "KHR_materials_pbrSpecularGlossiness": {
          "diffuseFactor": [
            1,
            1,
            1,
            1
          ],
          "diffuseTexture": {
            "index": 0,
            "texCoord": 0
          },
          "glossinessFactor": 0,
          "specularFactor": [
            0,
            0,
            0
          ]
        }
      },
      "name": "step4"
    }
  ],
  "meshes": [
    {
      "name": "Geodestep4",
      "primitives": [
        {
          "attributes": {
            "COLOR_0": 2,
            "NORMAL": 1,
            "POSITION": 0,
            "TANGENT": 4,
            "TEXCOORD_0": 3
          },
          "indices": 5,
          "material": 2,
          "mode": 4
        }
      ]
    },
    {
      "name": "Geodeoutline",
      "primitives": [
        {
          "attributes": {
            "COLOR_0": 8,
            "NORMAL": 7,
            "POSITION": 6,
            "TANGENT": 9
          },
          "indices": 10,
          "material": 1,
          "mode": 4
        }
      ]
    },
    {
      "name": "Geodemouth",
      "primitives": [
        {
          "attributes": {
            "COLOR_0": 13,
            "NORMAL": 12,
            "POSITION": 11,
            "TANGENT": 14
          },
          "indices": 15,
          "material": 0,
          "mode": 4
        }
      ]
    }
  ],
  "nodes": [
    {
      "children": [
        1
      ],
      "name": "RootNode (gltf orientation matrix)",
      "rotation": [
        -0.70710678118654746,
        -0,
        -0,
        0.70710678118654757
      ]
    },
    {
      "children": [
        2
      ],
      "name": "RootNode (model correction matrix)"
    },
    {
      "children": [
        3,
        5,
        7
      ],
      "name": "Root"
    },
    {
      "children": [
        4
      ],
      "name": "step4"
    },
    {
      "mesh": 0,
      "name": "Geodestep4"
    },
    {
      "children": [
        6
      ],
      "name": "outline"
    },
    {
      "mesh": 1,
      "name": "Geodeoutline"
    },
    {
      "children": [
        8
      ],
      "name": "mouth"
    },
    {
      "mesh": 2,
      "name": "Geodemouth"
    }
  ],
  "samplers": [
    {
      "magFilter": 9729,
      "minFilter": 9987,
      "wrapS": 10497,
      "wrapT": 10497
    }
  ],
  "scene": 0,
  "scenes": [
    {
      "name": "OSG_Scene",
      "nodes": [
        0
      ]
    }
  ],
  "textures": [
    {
      "sampler": 0,
      "source": 0
    }
  ]
}

