{
  "accessors": [
    {
      "bufferView": 2,
      "componentType": 5126,
      "count": 65532,
      "max": [
        230.75396728515625,
        230.96296691894531,
        244.19186401367188
      ],
      "min": [
        29.130973815917969,
        31.454265594482422,
        20.223869323730469
      ],
      "type": "VEC3"
    },
    {
      "bufferView": 2,
      "byteOffset": 786384,
      "componentType": 5126,
      "count": 65532,
      "max": [
        0.99999970197677612,
        0.99999982118606567,
        0.99998217821121216
      ],
      "min": [
        -0.99998533725738525,
        -0.96801960468292236,
        -0.99999052286148071
      ],
      "type": "VEC3"
    },
    {
      "bufferView": 3,
      "componentType": 5126,
      "count": 65532,
      "max": [
        0.97629064321517944,
        0.9810943603515625,
        1,
        -1
      ],
      "min": [
        -1,
        -0.99771052598953247,
        -0.99997818470001221,
        -1
      ],
      "type": "VEC4"
    },
    {
      "bufferView": 1,
      "componentType": 5126,
      "count": 65532,
      "max": [
        0.77960002422332764,
        0.36357998847961426
      ],
      "min": [
        0.0057999999262392521,
        0.0058000087738037109
      ],
      "type": "VEC2"
    },
    {
      "bufferView": 0,
      "componentType": 5125,
      "count": 363447,
      "max": [
        65531
      ],
      "min": [
        0
      ],
      "type": "SCALAR"
    },
    {
      "bufferView": 2,
      "byteOffset": 1572768,
      "componentType": 5126,
      "count": 65532,
      "max": [
        230.62411499023438,
        231.04476928710938,
        238.01918029785156
      ],
      "min": [
        28.687950134277344,
        0,
        0
      ],
      "type": "VEC3"
    },
    {
      "bufferView": 2,
      "byteOffset": 2359152,
      "componentType": 5126,
      "count": 65532,
      "max": [
        0.99904268980026245,
        0.99999469518661499,
        0.9988369345664978
      ],
      "min": [
        -0.99998533725738525,
        -0.99994111061096191,
        -0.99999880790710449
      ],
      "type": "VEC3"
    },
    {
      "bufferView": 3,
      "byteOffset": 1048512,
      "componentType": 5126,
      "count": 65532,
      "max": [
        0.99999892711639404,
        0.99779260158538818,
        0.9980894923210144,
        -1
      ],
      "min": [
        -0.99773913621902466,
        -0.99771052598953247,
        -0.99995815753936768,
        -1
      ],
      "type": "VEC4"
    },
    {
      "bufferView": 1,
      "byteOffset": 524256,
      "componentType": 5126,
      "count": 65532,
      "max": [
        0.77278000116348267,
        0.70113998651504517
      ],
      "min": [
        0.13924999535083771,
        0.0091800093650817871
      ],
      "type": "VEC2"
    },
    {
      "bufferView": 0,
      "byteOffset": 1453788,
      "componentType": 5125,
      "count": 332646,
      "max": [
        65531
      ],
      "min": [
        0
      ],
      "type": "SCALAR"
    },
    {
      "bufferView": 2,
      "byteOffset": 3145536,
      "componentType": 5126,
      "count": 65532,
      "max": [
        211.98731994628906,
        231.55850219726562,
        238.1614990234375
      ],
      "min": [
        30.023162841796875,
        0,
        8.7857818603515625
      ],
      "type": "VEC3"
    },
    {
      "bufferView": 2,
      "byteOffset": 3931920,
      "componentType": 5126,
      "count": 65532,
      "max": [
        0.99989819526672363,
        0.99998730421066284,
        0.99996989965438843
      ],
      "min": [
        -0.99999934434890747,
        -0.99994111061096191,
        -0.99976390600204468
      ],
      "type": "VEC3"
    },
    {
      "bufferView": 3,
      "byteOffset": 2097024,
      "componentType": 5126,
      "count": 65532,
      "max": [
        0.99999570846557617,
        0.99873936176300049,
        0.99987542629241943,
        -1
      ],
      "min": [
        -0.99773913621902466,
        -0.9993777871131897,
        -0.99999988079071045,
        -1
      ],
      "type": "VEC4"
    },
    {
      "bufferView": 1,
      "byteOffset": 1048512,
      "componentType": 5126,
      "count": 65532,
      "max": [
        0.73229002952575684,
        0.98417001962661743
      ],
      "min": [
        0.042840000241994858,
        0.30897998809814453
      ],
      "type": "VEC2"
    },
    {
      "bufferView": 0,
      "byteOffset": 2784372,
      "componentType": 5125,
      "count": 351681,
      "max": [
        65531
      ],
      "min": [
        0
      ],
      "type": "SCALAR"
    },
    {
      "bufferView": 2,
      "byteOffset": 4718304,
      "componentType": 5126,
      "count": 65532,
      "max": [
        211.88871765136719,
        231.55850219726562,
        240.93051147460938
      ],
      "min": [
        0,
        58.995407104492188,
        13.919967651367188
      ],
      "type": "VEC3"
    },
    {
      "bufferView": 2,
      "byteOffset": 5504688,
      "componentType": 5126,
      "count": 65532,
      "max": [
        0.99996858835220337,
        0.99996030330657959,
        0.99878275394439697
      ],
      "min": [
        -0.99998325109481812,
        -0.99997925758361816,
        -0.99982738494873047
      ],
      "type": "VEC3"
    },
    {
      "bufferView": 3,
      "byteOffset": 3145536,
      "componentType": 5126,
      "count": 65532,
      "max": [
        0.99999886751174927,
        0.99999815225601196,
        0.99995607137680054,
        1
      ],
      "min": [
        -0.99948680400848389,
        -0.99999797344207764,
        -0.99999988079071045,
        -1
      ],
      "type": "VEC4"
    },
    {
      "bufferView": 1,
      "byteOffset": 1572768,
      "componentType": 5126,
      "count": 65532,
      "max": [
        0.99160999059677124,
        0.99750000238418579
      ],
      "min": [
        0.023199999704957008,
        0.0058000087738037109
      ],
      "type": "VEC2"
    },
    {
      "bufferView": 0,
      "byteOffset": 4191096,
      "componentType": 5125,
      "count": 353139,
      "max": [
        65531
      ],
      "min": [
        0
      ],
      "type": "SCALAR"
    },
    {
      "bufferView": 2,
      "byteOffset": 6291072,
      "componentType": 5126,
      "count": 18649,
      "max": [
        78.666130065917969,
        219.58506774902344,
        198.34622192382812
      ],
      "min": [
        0.5128173828125,
        102.05078125,
        37.549385070800781
      ],
      "type": "VEC3"
    },
    {
      "bufferView": 2,
      "byteOffset": 6514860,
      "componentType": 5126,
      "count": 18649,
      "max": [
        0.99994367361068726,
        0.99997174739837646,
        0.99714487791061401
      ],
      "min": [
        -0.99959999322891235,
        -0.99984931945800781,
        -0.99909597635269165
      ],
      "type": "VEC3"
    },
    {
      "bufferView": 3,
      "byteOffset": 4194048,
      "componentType": 5126,
      "count": 18649,
      "max": [
        0.99999320507049561,
        0.99928635358810425,
        0.9999883770942688,
        -1
      ],
      "min": [
        -0.99929052591323853,
        -0.99999713897705078,
        -0.99998259544372559,
        -1
      ],
      "type": "VEC4"
    },
    {
      "bufferView": 1,
      "byteOffset": 2097024,
      "componentType": 5126,
      "count": 18649,
      "max": [
        0.93906998634338379,
        0.99753999710083008
      ],
      "min": [
        0.0057999999262392521,
        0.05801999568939209
      ],
      "type": "VEC2"
    },
    {
      "bufferView": 0,
      "byteOffset": 5603652,
      "componentType": 5125,
      "count": 99087,
      "max": [
        18648
      ],
      "min": [
        0
      ],
      "type": "SCALAR"
    }
  ],
  "asset": {
    "generator": "Sketchfab (OSG glTF plugin)",
    "version": "2.0"
  },
  "bufferViews": [
    {
      "buffer": 0,
      "byteLength": 6000000,
      "byteOffset": 0,
      "name": "floatBufferViews",
      "target": 34963
    },
    {
      "buffer": 0,
      "byteLength": 2246216,
      "byteOffset": 6000000,
      "byteStride": 8,
      "name": "floatBufferViews",
      "target": 34962
    },
    {
      "buffer": 0,
      "byteLength": 6738648,
      "byteOffset": 8246216,
      "byteStride": 12,
      "name": "floatBufferViews",
      "target": 34962
    },
    {
      "buffer": 0,
      "byteLength": 4492432,
      "byteOffset": 14984864,
      "byteStride": 16,
      "name": "floatBufferViews",
      "target": 34962
    }
  ],
  "buffers": [
    {
      "byteLength": 19477296,
      "uri": "scene.bin"
    }
  ],
  "extensionsRequired": [
    "KHR_materials_pbrSpecularGlossiness"
  ],
  "extensionsUsed": [
    "KHR_materials_pbrSpecularGlossiness"
  ],
  "images": [
    {
      "uri": "textures/material_0_diffuse.png"
    }
  ],
  "materials": [
    {
      "doubleSided": true,
      "emissiveFactor": [
        0,
        0,
        0
      ],
      "extensions": {
        "KHR_materials_pbrSpecularGlossiness": {
          "diffuseFactor": [
            1,
            1,
            1,
            1
          ],
          "diffuseTexture": {
            "index": 0,
            "texCoord": 0
          },
          "glossinessFactor": 0,
          "specularFactor": [
            0,
            0,
            0
          ]
        }
      },
      "name": "material_0",
      "occlusionFactor": 1
    }
  ],
  "meshes": [
    {
      "primitives": [
        {
          "attributes": {
            "NORMAL": 1,
            "POSITION": 0,
            "TANGENT": 2,
            "TEXCOORD_0": 3
          },
          "indices": 4,
          "material": 0,
          "mode": 4
        }
      ]
    },
    {
      "primitives": [
        {
          "attributes": {
            "NORMAL": 6,
            "POSITION": 5,
            "TANGENT": 7,
            "TEXCOORD_0": 8
          },
          "indices": 9,
          "material": 0,
          "mode": 4
        }
      ]
    },
    {
      "primitives": [
        {
          "attributes": {
            "NORMAL": 11,
            "POSITION": 10,
            "TANGENT": 12,
            "TEXCOORD_0": 13
          },
          "indices": 14,
          "material": 0,
          "mode": 4
        }
      ]
    },
    {
      "primitives": [
        {
          "attributes": {
            "NORMAL": 16,
            "POSITION": 15,
            "TANGENT": 17,
            "TEXCOORD_0": 18
          },
          "indices": 19,
          "material": 0,
          "mode": 4
        }
      ]
    },
    {
      "primitives": [
        {
          "attributes": {
            "NORMAL": 21,
            "POSITION": 20,
            "TANGENT": 22,
            "TEXCOORD_0": 23
          },
          "indices": 24,
          "material": 0,
          "mode": 4
        }
      ]
    }
  ],
  "nodes": [
    {
      "children": [
        1
      ],
      "name": "RootNode (gltf orientation matrix)",
      "rotation": [
        -0.70710678118654746,
        -0,
        -0,
        0.70710678118654757
      ]
    },
    {
      "children": [
        2
      ],
      "matrix": [
        0,
        0.96517717838287354,
        -0.26159703731536865,
        0,
        0,
        0.26159703731536865,
        0.96517717838287354,
        0,
        1,
        0,
        0,
        0,
        -38.853000640869141,
        109.32073974609375,
        -104.04171752929688,
        1
      ],
      "name": "RootNode (model correction matrix)"
    },
    {
      "children": [
        8
      ],
      "matrix": [
        1,
        0,
        0,
        0,
        0,
        1,
        0,
        0,
        0,
        0,
        1,
        0,
        -145.71725463867188,
        -7.3870096206665039,
        -113.58335113525391,
        1
      ],
      "name": "pumpkin.obj.cleaner.gles"
    },
    {
      "mesh": 0,
      "name": ""
    },
    {
      "mesh": 1,
      "name": ""
    },
    {
      "mesh": 2,
      "name": ""
    },
    {
      "mesh": 3,
      "name": ""
    },
    {
      "mesh": 4,
      "name": ""
    },
    {
      "children": [
        3,
        4,
        5,
        6,
        7
      ],
      "name": "Geode"
    }
  ],
  "samplers": [
    {
      "magFilter": 9729,
      "minFilter": 9987,
      "wrapS": 10497,
      "wrapT": 10497
    }
  ],
  "scene": 0,
  "scenes": [
    {
      "name": "OSG_Scene",
      "nodes": [
        0
      ]
    }
  ],
  "textures": [
    {
      "sampler": 0,
      "source": 0
    }
  ]
}

