{
    "accessors": {
        "accessor_21": {
            "bufferView": "bufferView_29",
            "byteOffset": 0,
            "byteStride": 0,
            "componentType": 5123,
            "count": 2904,
            "type": "SCALAR"
        },
        "accessor_23": {
            "bufferView": "bufferView_30",
            "byteOffset": 0,
            "byteStride": 12,
            "componentType": 5126,
            "count": 2904,
            "max": [
                0,
                0.55314,
                0.450051
            ],
            "min": [
                0,
                0.203255,
                -0.171966
            ],
            "type": "VEC3"
        },
        "accessor_25": {
            "bufferView": "bufferView_30",
            "byteOffset": 34848,
            "byteStride": 12,
            "componentType": 5126,
            "count": 2904,
            "max": [
                1,
                0,
                0
            ],
            "min": [
                1,
                0,
                0
            ],
            "type": "VEC3"
        },
        "accessor_27": {
            "bufferView": "bufferView_30",
            "byteOffset": 69696,
            "byteStride": 8,
            "componentType": 5126,
            "count": 2904,
            "max": [
                1,
                1
            ],
            "min": [
                0,
                0
            ],
            "type": "VEC2"
        }
    },
    "animations": {},
    "asset": {
        "generator": "collada2gltf@11bf28f97f1b5380fbefacf862ce7c597873d368",
        "premultipliedAlpha": true,
        "profile": {
            "api": "WebGL",
            "version": "1.0.2"
        },
        "version": 1
    },
    "bufferViews": {
        "bufferView_29": {
            "buffer": "CLOTH",
            "byteLength": 5808,
            "byteOffset": 0,
            "target": 34963
        },
        "bufferView_30": {
            "buffer": "CLOTH",
            "byteLength": 92928,
            "byteOffset": 5808,
            "target": 34962
        }
    },
    "buffers": {
        "CLOTH": {
            "byteLength": 98736,
            "type": "arraybuffer",
            "uri": "CLOTH.bin"
        }
    },
    "images": {
        "v_i_r_t_u_a_l_png": {
            "name": "v_i_r_t_u_a_l_png",
            "uri": "v%20i%20r%20t%20u%20a%20l.png"
        }
    },
    "materials": {
        "v_i_r_t_u_a_l-effect": {
            "extensions": {
                "KHR_materials_common": {
                    "technique": "CONSTANT",
                    "values": {
                    "emission": "texture_asset"
                    }
                }
            },
            "name": "v_i_r_t_u_a_l"
        }
    },
    "meshes": {
        "v_i_r_t_u_a_l_v_i_r_t_u_a_l-mesh": {
            "name": "v_i_r_t_u_a_l_v_i_r_t_u_a_l",
            "primitives": [
                {
                    "attributes": {
                        "NORMAL": "accessor_25",
                        "POSITION": "accessor_23",
                        "TEXCOORD_0": "accessor_27"
                    },
                    "indices": "accessor_21",
                    "material": "v_i_r_t_u_a_l-effect",
                    "mode": 4
                }
            ]
        }
    },
    "nodes": {
        "node_1": {
            "children": [
                "v_i_r_t_u_a_l_v_i_r_t_u_a_l"
            ],
            "matrix": [
                1,
                0,
                0,
                0,
                0,
                0,
                -1,
                0,
                0,
                1,
                0,
                0,
                0,
                0,
                0,
                1
            ],
            "name": "Y_UP_Transform"
        },
        "v_i_r_t_u_a_l_v_i_r_t_u_a_l": {
            "children": [],
            "matrix": [
                1,
                0,
                0,
                0,
                0,
                -1.62921e-07,
                1,
                0,
                0,
                -1,
                -1.62921e-07,
                0,
                0,
                0,
                0,
                1
            ],
            "meshes": [
                "v_i_r_t_u_a_l_v_i_r_t_u_a_l-mesh"
            ],
            "name": "v_i_r_t_u_a_l_v_i_r_t_u_a_l"
        }
    },
    "samplers": {
        "sampler_0": {
            "magFilter": 9729,
            "minFilter": 9729,
            "wrapS": 10497,
            "wrapT": 10497
        }
    },
    "scene": "defaultScene",
    "scenes": {
        "defaultScene": {
            "nodes": [
                "node_1"
            ]
        }
    },
    "skins": {},
    "textures": {
        "texture_v_i_r_t_u_a_l_png": {
            "format": 6408,
            "internalFormat": 6408,
            "sampler": "sampler_0",
            "source": "v_i_r_t_u_a_l_png",
            "target": 3553,
            "type": 5121
        }
    }
}
