{"accessors":{"accessor_0":{"bufferView":"bufferView_0","byteOffset":0,"byteStride":0,"componentType":5126,"count":15640,"min":[-1.3427989482879639,-2.167464017868042,-2.6153600215911865],"max":[1.362064003944397,3.0272650718688965,2.1417009830474854],"type":"VEC3"},"accessor_1":{"bufferView":"bufferView_0","byteOffset":187680,"byteStride":0,"componentType":5126,"count":15640,"min":[-0.9993314146995544,-0.9991222023963928,-0.9972090125083923],"max":[0.9993311166763306,0.9991222023963928,0.9972090721130371],"type":"VEC3"},"accessor_2":{"bufferView":"bufferView_1","byteOffset":0,"byteStride":0,"componentType":5123,"count":72,"min":[0],"max":[71],"type":"SCALAR"},"accessor_3":{"bufferView":"bufferView_1","byteOffset":144,"byteStride":0,"componentType":5123,"count":1080,"min":[72],"max":[815],"type":"SCALAR"},"accessor_4":{"bufferView":"bufferView_1","byteOffset":2304,"byteStride":0,"componentType":5123,"count":1152,"min":[816],"max":[1639],"type":"SCALAR"},"accessor_5":{"bufferView":"bufferView_1","byteOffset":4608,"byteStride":0,"componentType":5123,"count":576,"min":[1640],"max":[2119],"type":"SCALAR"},"accessor_6":{"bufferView":"bufferView_1","byteOffset":5760,"byteStride":0,"componentType":5123,"count":216,"min":[2120],"max":[2271],"type":"SCALAR"},"accessor_7":{"bufferView":"bufferView_1","byteOffset":6192,"byteStride":0,"componentType":5123,"count":1152,"min":[2272],"max":[3087],"type":"SCALAR"},"accessor_8":{"bufferView":"bufferView_1","byteOffset":8496,"byteStride":0,"componentType":5123,"count":18828,"min":[3088],"max":[15639],"type":"SCALAR"}},"asset":{"generator":"obj2gltf","profile":{"api":"WebGL","version":"1.0"},"version":"1.0","premultipliedAlpha":true},"buffers":{"buffer":{"byteLength":421512,"uri":"data:application/octet-stream;base64,","type":"arraybuffer"}},"bufferViews":{"bufferView_0":{"buffer":"buffer","byteLength":375360,"byteOffset":0,"target":34962},"bufferView_1":{"buffer":"buffer","byteLength":46152,"byteOffset":375360,"target":34963}},"extensionsUsed":[],"images":{},"materials":{"mat23":{"technique":"technique0","values":{"ambient":[0.1,0.1,0.1,1],"diffuse":[0.1,0.1,0.1,1],"emission":[0,0,0,1],"specular":[0,0,0,1],"shininess":0,"transparency":1}},"mat21":{"technique":"technique0","values":{"ambient":[0,0,0,1],"diffuse":[1,1,1,1],"emission":[0,0,0,1],"specular":[0,0,0,1],"shininess":0,"transparency":1}},"mat18":{"technique":"technique0","values":{"ambient":[1,0.8,0.53,1],"diffuse":[1,0.8,0.53,1],"emission":[0,0,0,1],"specular":[0,0,0,1],"shininess":0,"transparency":1}},"mat11":{"technique":"technique0","values":{"ambient":[0,0.59,0.53,1],"diffuse":[0,0.59,0.53,1],"emission":[0,0,0,1],"specular":[0,0,0,1],"shininess":0,"transparency":1}},"mat20":{"technique":"technique0","values":{"ambient":[0.47,0.33,0.28,1],"diffuse":[0.47,0.33,0.28,1],"emission":[0,0,0,1],"specular":[0,0,0,1],"shininess":0,"transparency":1}},"mat12":{"technique":"technique0","values":{"ambient":[1,0.92,0.23,1],"diffuse":[1,0.92,0.23,1],"emission":[0,0,0,1],"specular":[0,0,0,1],"shininess":0,"transparency":1}},"mat16":{"technique":"technique0","values":{"ambient":[0.47,0.56,0.61,1],"diffuse":[0.47,0.56,0.61,1],"emission":[0,0,0,1],"specular":[0,0,0,1],"shininess":0,"transparency":1}}},"meshes":{"Node-Mesh":{"name":"Node-Mesh","primitives":[{"attributes":{"POSITION":"accessor_0","NORMAL":"accessor_1"},"indices":"accessor_2","material":"mat23","mode":4},{"attributes":{"POSITION":"accessor_0","NORMAL":"accessor_1"},"indices":"accessor_3","material":"mat21","mode":4},{"attributes":{"POSITION":"accessor_0","NORMAL":"accessor_1"},"indices":"accessor_4","material":"mat18","mode":4},{"attributes":{"POSITION":"accessor_0","NORMAL":"accessor_1"},"indices":"accessor_5","material":"mat11","mode":4},{"attributes":{"POSITION":"accessor_0","NORMAL":"accessor_1"},"indices":"accessor_6","material":"mat20","mode":4},{"attributes":{"POSITION":"accessor_0","NORMAL":"accessor_1"},"indices":"accessor_7","material":"mat12","mode":4},{"attributes":{"POSITION":"accessor_0","NORMAL":"accessor_1"},"indices":"accessor_8","material":"mat16","mode":4}]}},"nodes":{"Node":{"name":"Node","meshes":["Node-Mesh"],"children":[],"matrix":[1,0,0,0,0,1,0,0,0,0,1,0,0,0,0,1]}},"samplers":{},"scene":"scene","scenes":{"scene":{"nodes":["Node"]}},"textures":{},"animations":{},"cameras":{},"programs":{"program0":{"attributes":["a_position","a_normal"],"fragmentShader":"fragmentShader0","vertexShader":"vertexShader0"}},"shaders":{"vertexShader0":{"type":35633,"uri":"data:text/plain;base64,"},"fragmentShader0":{"type":35632,"uri":"data:text/plain;base64,"}},"skins":{},"techniques":{"technique0":{"attributes":{"a_position":"position","a_normal":"normal"},"parameters":{"modelViewMatrix":{"semantic":"MODELVIEW","type":35676},"projectionMatrix":{"semantic":"PROJECTION","type":35676},"normalMatrix":{"semantic":"MODELVIEWINVERSETRANSPOSE","type":35675},"ambient":{"type":35666},"diffuse":{"type":35666},"emission":{"type":35666},"specular":{"type":35666},"shininess":{"type":5126},"transparency":{"type":5126},"position":{"semantic":"POSITION","type":35665},"normal":{"semantic":"NORMAL","type":35665}},"program":"program0","states":{"enable":[2884,2929]},"uniforms":{"u_modelViewMatrix":"modelViewMatrix","u_projectionMatrix":"projectionMatrix","u_normalMatrix":"normalMatrix","u_ambient":"ambient","u_diffuse":"diffuse","u_emission":"emission","u_specular":"specular","u_shininess":"shininess","u_transparency":"transparency"}}}}
