{
    "accessors" : [
        {
            "bufferView" : 0, 
            "componentType" : 5121, 
            "count" : 72, 
            "max" : [
                25
            ], 
            "min" : [
                0
            ], 
            "type" : "SCALAR"
        }, 
        {
            "bufferView" : 1, 
            "componentType" : 5126, 
            "count" : 9500, 
            "max" : [
                1.362064003944397, 
                2.1417009830474854, 
                2.167464017868042
            ], 
            "min" : [
                -1.3427989482879639, 
                -2.6153600215911865, 
                -3.0272650718688965
            ], 
            "type" : "VEC3"
        }, 
        {
            "bufferView" : 2, 
            "componentType" : 5126, 
            "count" : 9500, 
            "max" : [
                0.999908447265625, 
                1.0, 
                0.99969482421875
            ], 
            "min" : [
                -0.999908447265625, 
                -0.9986266493797302, 
                -0.999542236328125
            ], 
            "type" : "VEC3"
        }, 
        {
            "bufferView" : 3, 
            "componentType" : 5123, 
            "count" : 216, 
            "max" : [
                2151
            ], 
            "min" : [
                2000
            ], 
            "type" : "SCALAR"
        }, 
        {
            "bufferView" : 4, 
            "componentType" : 5126, 
            "count" : 9500, 
            "max" : [
                1.362064003944397, 
                2.1417009830474854, 
                2.167464017868042
            ], 
            "min" : [
                -1.3427989482879639, 
                -2.6153600215911865, 
                -3.0272650718688965
            ], 
            "type" : "VEC3"
        }, 
        {
            "bufferView" : 5, 
            "componentType" : 5126, 
            "count" : 9500, 
            "max" : [
                0.999908447265625, 
                1.0, 
                0.99969482421875
            ], 
            "min" : [
                -0.999908447265625, 
                -0.9986266493797302, 
                -0.999542236328125
            ], 
            "type" : "VEC3"
        }, 
        {
            "bufferView" : 6, 
            "componentType" : 5123, 
            "count" : 1152, 
            "max" : [
                1545
            ], 
            "min" : [
                770
            ], 
            "type" : "SCALAR"
        }, 
        {
            "bufferView" : 7, 
            "componentType" : 5126, 
            "count" : 9500, 
            "max" : [
                1.362064003944397, 
                2.1417009830474854, 
                2.167464017868042
            ], 
            "min" : [
                -1.3427989482879639, 
                -2.6153600215911865, 
                -3.0272650718688965
            ], 
            "type" : "VEC3"
        }, 
        {
            "bufferView" : 8, 
            "componentType" : 5126, 
            "count" : 9500, 
            "max" : [
                0.999908447265625, 
                1.0, 
                0.99969482421875
            ], 
            "min" : [
                -0.999908447265625, 
                -0.9986266493797302, 
                -0.999542236328125
            ], 
            "type" : "VEC3"
        }, 
        {
            "bufferView" : 9, 
            "componentType" : 5123, 
            "count" : 1152, 
            "max" : [
                2921
            ], 
            "min" : [
                2152
            ], 
            "type" : "SCALAR"
        }, 
        {
            "bufferView" : 10, 
            "componentType" : 5126, 
            "count" : 9500, 
            "max" : [
                1.362064003944397, 
                2.1417009830474854, 
                2.167464017868042
            ], 
            "min" : [
                -1.3427989482879639, 
                -2.6153600215911865, 
                -3.0272650718688965
            ], 
            "type" : "VEC3"
        }, 
        {
            "bufferView" : 11, 
            "componentType" : 5126, 
            "count" : 9500, 
            "max" : [
                0.999908447265625, 
                1.0, 
                0.99969482421875
            ], 
            "min" : [
                -0.999908447265625, 
                -0.9986266493797302, 
                -0.999542236328125
            ], 
            "type" : "VEC3"
        }, 
        {
            "bufferView" : 12, 
            "componentType" : 5123, 
            "count" : 18972, 
            "max" : [
                9499
            ], 
            "min" : [
                2922
            ], 
            "type" : "SCALAR"
        }, 
        {
            "bufferView" : 13, 
            "componentType" : 5126, 
            "count" : 9500, 
            "max" : [
                1.362064003944397, 
                2.1417009830474854, 
                2.167464017868042
            ], 
            "min" : [
                -1.3427989482879639, 
                -2.6153600215911865, 
                -3.0272650718688965
            ], 
            "type" : "VEC3"
        }, 
        {
            "bufferView" : 14, 
            "componentType" : 5126, 
            "count" : 9500, 
            "max" : [
                0.999908447265625, 
                1.0, 
                0.99969482421875
            ], 
            "min" : [
                -0.999908447265625, 
                -0.9986266493797302, 
                -0.999542236328125
            ], 
            "type" : "VEC3"
        }, 
        {
            "bufferView" : 15, 
            "componentType" : 5123, 
            "count" : 1080, 
            "max" : [
                769
            ], 
            "min" : [
                26
            ], 
            "type" : "SCALAR"
        }, 
        {
            "bufferView" : 16, 
            "componentType" : 5126, 
            "count" : 9500, 
            "max" : [
                1.362064003944397, 
                2.1417009830474854, 
                2.167464017868042
            ], 
            "min" : [
                -1.3427989482879639, 
                -2.6153600215911865, 
                -3.0272650718688965
            ], 
            "type" : "VEC3"
        }, 
        {
            "bufferView" : 17, 
            "componentType" : 5126, 
            "count" : 9500, 
            "max" : [
                0.999908447265625, 
                1.0, 
                0.99969482421875
            ], 
            "min" : [
                -0.999908447265625, 
                -0.9986266493797302, 
                -0.999542236328125
            ], 
            "type" : "VEC3"
        }, 
        {
            "bufferView" : 18, 
            "componentType" : 5123, 
            "count" : 576, 
            "max" : [
                1999
            ], 
            "min" : [
                1546
            ], 
            "type" : "SCALAR"
        }, 
        {
            "bufferView" : 19, 
            "componentType" : 5126, 
            "count" : 9500, 
            "max" : [
                1.362064003944397, 
                2.1417009830474854, 
                2.167464017868042
            ], 
            "min" : [
                -1.3427989482879639, 
                -2.6153600215911865, 
                -3.0272650718688965
            ], 
            "type" : "VEC3"
        }, 
        {
            "bufferView" : 20, 
            "componentType" : 5126, 
            "count" : 9500, 
            "max" : [
                0.999908447265625, 
                1.0, 
                0.99969482421875
            ], 
            "min" : [
                -0.999908447265625, 
                -0.9986266493797302, 
                -0.999542236328125
            ], 
            "type" : "VEC3"
        }
    ], 
    "asset" : {
        "generator" : "Khronos Blender glTF 2.0 exporter", 
        "version" : "2.0"
    }, 
    "bufferViews" : [
        {
            "buffer" : 0, 
            "byteLength" : 72, 
            "byteOffset" : 0, 
            "target" : 34963
        }, 
        {
            "buffer" : 0, 
            "byteLength" : 114000, 
            "byteOffset" : 72, 
            "target" : 34962
        }, 
        {
            "buffer" : 0, 
            "byteLength" : 114000, 
            "byteOffset" : 114072, 
            "target" : 34962
        }, 
        {
            "buffer" : 0, 
            "byteLength" : 432, 
            "byteOffset" : 228072, 
            "target" : 34963
        }, 
        {
            "buffer" : 0, 
            "byteLength" : 114000, 
            "byteOffset" : 228504, 
            "target" : 34962
        }, 
        {
            "buffer" : 0, 
            "byteLength" : 114000, 
            "byteOffset" : 342504, 
            "target" : 34962
        }, 
        {
            "buffer" : 0, 
            "byteLength" : 2304, 
            "byteOffset" : 456504, 
            "target" : 34963
        }, 
        {
            "buffer" : 0, 
            "byteLength" : 114000, 
            "byteOffset" : 458808, 
            "target" : 34962
        }, 
        {
            "buffer" : 0, 
            "byteLength" : 114000, 
            "byteOffset" : 572808, 
            "target" : 34962
        }, 
        {
            "buffer" : 0, 
            "byteLength" : 2304, 
            "byteOffset" : 686808, 
            "target" : 34963
        }, 
        {
            "buffer" : 0, 
            "byteLength" : 114000, 
            "byteOffset" : 689112, 
            "target" : 34962
        }, 
        {
            "buffer" : 0, 
            "byteLength" : 114000, 
            "byteOffset" : 803112, 
            "target" : 34962
        }, 
        {
            "buffer" : 0, 
            "byteLength" : 37944, 
            "byteOffset" : 917112, 
            "target" : 34963
        }, 
        {
            "buffer" : 0, 
            "byteLength" : 114000, 
            "byteOffset" : 955056, 
            "target" : 34962
        }, 
        {
            "buffer" : 0, 
            "byteLength" : 114000, 
            "byteOffset" : 1069056, 
            "target" : 34962
        }, 
        {
            "buffer" : 0, 
            "byteLength" : 2160, 
            "byteOffset" : 1183056, 
            "target" : 34963
        }, 
        {
            "buffer" : 0, 
            "byteLength" : 114000, 
            "byteOffset" : 1185216, 
            "target" : 34962
        }, 
        {
            "buffer" : 0, 
            "byteLength" : 114000, 
            "byteOffset" : 1299216, 
            "target" : 34962
        }, 
        {
            "buffer" : 0, 
            "byteLength" : 1152, 
            "byteOffset" : 1413216, 
            "target" : 34963
        }, 
        {
            "buffer" : 0, 
            "byteLength" : 114000, 
            "byteOffset" : 1414368, 
            "target" : 34962
        }, 
        {
            "buffer" : 0, 
            "byteLength" : 114000, 
            "byteOffset" : 1528368, 
            "target" : 34962
        }
    ], 
    "buffers" : [
        {
            "byteLength" : 1642368, 
            "uri" : "model-jack.bin"
        }
    ], 
    "cameras" : [
        {
            "name" : "Camera", 
            "perspective" : {
                "aspectRatio" : 1.703595982340029, 
                "yfov" : 0.5033799409866333, 
                "zfar" : 100.0, 
                "znear" : 0.10000000149011612
            }, 
            "type" : "perspective"
        }
    ], 
    "meshes" : [
        {
            "name" : "model", 
            "primitives" : [
                {
                    "attributes" : {
                        "NORMAL" : 2, 
                        "POSITION" : 1
                    }, 
                    "indices" : 0
                }, 
                {
                    "attributes" : {
                        "NORMAL" : 5, 
                        "POSITION" : 4
                    }, 
                    "indices" : 3
                }, 
                {
                    "attributes" : {
                        "NORMAL" : 8, 
                        "POSITION" : 7
                    }, 
                    "indices" : 6
                }, 
                {
                    "attributes" : {
                        "NORMAL" : 11, 
                        "POSITION" : 10
                    }, 
                    "indices" : 9
                }, 
                {
                    "attributes" : {
                        "NORMAL" : 14, 
                        "POSITION" : 13
                    }, 
                    "indices" : 12
                }, 
                {
                    "attributes" : {
                        "NORMAL" : 17, 
                        "POSITION" : 16
                    }, 
                    "indices" : 15
                }, 
                {
                    "attributes" : {
                        "NORMAL" : 20, 
                        "POSITION" : 19
                    }, 
                    "indices" : 18
                }
            ]
        }
    ], 
    "nodes" : [
        {
            "camera" : 0, 
            "name" : "Correction_Camera", 
            "rotation" : [
                -0.7071067690849304, 
                -0.0, 
                0.0, 
                0.7071067690849304
            ]
        }, 
        {
            "children" : [
                0
            ], 
            "name" : "Camera", 
            "rotation" : [
                0.483536034822464, 
                0.33687159419059753, 
                -0.20870360732078552, 
                0.7804827094078064
            ], 
            "translation" : [
                7.481131553649902, 
                5.34366512298584, 
                6.5076398849487305
            ]
        }, 
        {
            "name" : "Lamp", 
            "rotation" : [
                0.16907575726509094, 
                0.7558802962303162, 
                -0.27217137813568115, 
                0.570947527885437
            ], 
            "scale" : [
                1.0, 
                1.0, 
                0.9999999403953552
            ], 
            "translation" : [
                4.076245307922363, 
                5.903861999511719, 
                -1.0054539442062378
            ]
        }, 
        {
            "mesh" : 0, 
            "name" : "model", 
            "rotation" : [
                0.7071068286895752, 
                0.0, 
                -0.0, 
                0.7071067094802856
            ], 
            "translation" : [
                0.029743880033493042, 
                0.6375802755355835, 
                -0.8532118201255798
            ]
        }
    ], 
    "scene" : 0, 
    "scenes" : [
        {
            "name" : "Scene", 
            "nodes" : [
                3, 
                2, 
                1
            ]
        }
    ]
}
