{
  "accessors": [
    {
      "name": "Node-Mesh_positions",
      "componentType": 5126,
      "count": 1016,
      "min": [
        -0.34168338775634766,
        -0.5353342294692993,
        -0.3390902876853943
      ],
      "max": [
        0.3818399906158447,
        0.36780980229377747,
        0.4087035059928894
      ],
      "type": "VEC3",
      "bufferView": 0,
      "byteOffset": 0
    },
    {
      "name": "Node-Mesh_normals",
      "componentType": 5126,
      "count": 1016,
      "min": [
        -0.9982566833496094,
        -0.9965366721153259,
        -0.9892725944519043
      ],
      "max": [
        0.9982566833496094,
        0.9975544214248657,
        0.9892725944519043
      ],
      "type": "VEC3",
      "bufferView": 0,
      "byteOffset": 12192
    },
    {
      "name": "Node-Mesh_0_indices",
      "componentType": 5123,
      "count": 132,
      "min": [
        0
      ],
      "max": [
        119
      ],
      "type": "SCALAR",
      "bufferView": 1,
      "byteOffset": 0
    },
    {
      "name": "Node-Mesh_1_indices",
      "componentType": 5123,
      "count": 264,
      "min": [
        120
      ],
      "max": [
        263
      ],
      "type": "SCALAR",
      "bufferView": 1,
      "byteOffset": 264
    },
    {
      "name": "Node-Mesh_2_indices",
      "componentType": 5123,
      "count": 264,
      "min": [
        264
      ],
      "max": [
        415
      ],
      "type": "SCALAR",
      "bufferView": 1,
      "byteOffset": 792
    },
    {
      "name": "Node-Mesh_3_indices",
      "componentType": 5123,
      "count": 756,
      "min": [
        416
      ],
      "max": [
        907
      ],
      "type": "SCALAR",
      "bufferView": 1,
      "byteOffset": 1320
    },
    {
      "name": "Node-Mesh_4_indices",
      "componentType": 5123,
      "count": 180,
      "min": [
        908
      ],
      "max": [
        1015
      ],
      "type": "SCALAR",
      "bufferView": 1,
      "byteOffset": 2832
    }
  ],
  "asset": {
    "generator": "obj2gltf",
    "version": "2.0"
  },
  "buffers": [
    {
      "name": "model",
      "byteLength": 27576,
      "uri": "data:application/octet-stream;base64,"
    }
  ],
  "bufferViews": [
    {
      "name": "bufferView_0",
      "buffer": 0,
      "byteLength": 24384,
      "byteOffset": 0,
      "byteStride": 12,
      "target": 34962
    },
    {
      "name": "bufferView_1",
      "buffer": 0,
      "byteLength": 3192,
      "byteOffset": 24384,
      "target": 34963
    }
  ],
  "materials": [
    {
      "name": "mat21",
      "pbrMetallicRoughness": {
        "baseColorFactor": [
          1,
          1,
          1,
          1
        ],
        "metallicFactor": 0,
        "roughnessFactor": 1
      },
      "emissiveFactor": [
        0,
        0,
        0
      ],
      "alphaMode": "OPAQUE",
      "doubleSided": false
    },
    {
      "name": "mat7",
      "pbrMetallicRoughness": {
        "baseColorFactor": [
          0.94,
          0.38,
          0.57,
          1
        ],
        "metallicFactor": 0,
        "roughnessFactor": 1
      },
      "emissiveFactor": [
        0,
        0,
        0
      ],
      "alphaMode": "OPAQUE",
      "doubleSided": false
    },
    {
      "name": "mat18",
      "pbrMetallicRoughness": {
        "baseColorFactor": [
          1,
          0.8,
          0.53,
          1
        ],
        "metallicFactor": 0,
        "roughnessFactor": 1
      },
      "emissiveFactor": [
        0,
        0,
        0
      ],
      "alphaMode": "OPAQUE",
      "doubleSided": false
    },
    {
      "name": "mat3",
      "pbrMetallicRoughness": {
        "baseColorFactor": [
          0.5,
          0.87,
          0.92,
          1
        ],
        "metallicFactor": 0,
        "roughnessFactor": 1
      },
      "emissiveFactor": [
        0,
        0,
        0
      ],
      "alphaMode": "OPAQUE",
      "doubleSided": false
    },
    {
      "name": "mat8",
      "pbrMetallicRoughness": {
        "baseColorFactor": [
          0.96,
          0.26,
          0.21,
          1
        ],
        "metallicFactor": 0,
        "roughnessFactor": 1
      },
      "emissiveFactor": [
        0,
        0,
        0
      ],
      "alphaMode": "OPAQUE",
      "doubleSided": false
    }
  ],
  "meshes": [
    {
      "name": "Node-Mesh",
      "primitives": [
        {
          "attributes": {
            "POSITION": 0,
            "NORMAL": 1
          },
          "indices": 2,
          "material": 0,
          "mode": 4
        },
        {
          "attributes": {
            "POSITION": 0,
            "NORMAL": 1
          },
          "indices": 3,
          "material": 1,
          "mode": 4
        },
        {
          "attributes": {
            "POSITION": 0,
            "NORMAL": 1
          },
          "indices": 4,
          "material": 2,
          "mode": 4
        },
        {
          "attributes": {
            "POSITION": 0,
            "NORMAL": 1
          },
          "indices": 5,
          "material": 3,
          "mode": 4
        },
        {
          "attributes": {
            "POSITION": 0,
            "NORMAL": 1
          },
          "indices": 6,
          "material": 4,
          "mode": 4
        }
      ]
    }
  ],
  "nodes": [
    {
      "name": "Node",
      "mesh": 0
    }
  ],
  "scene": 0,
  "scenes": [
    {
      "nodes": [
        0
      ]
    }
  ]
}
