{"accessors":{"accessor_0":{"bufferView":"bufferView_0","byteOffset":0,"byteStride":0,"componentType":5126,"count":10164,"min":[-1.0755350589752197,0,-1.0002379417419434],"max":[1.1094670295715332,3.218640089035034,1.40277898311615],"type":"VEC3"},"accessor_1":{"bufferView":"bufferView_0","byteOffset":121968,"byteStride":0,"componentType":5126,"count":10164,"min":[-1,-0.9922999739646912,-0.9993000030517578],"max":[0.9998999834060669,0.9988999962806702,0.9991999864578247],"type":"VEC3"},"accessor_2":{"bufferView":"bufferView_1","byteOffset":0,"byteStride":0,"componentType":5123,"count":10176,"min":[0],"max":[10163],"type":"SCALAR"}},"asset":{"generator":"obj2gltf","profile":{"api":"WebGL","version":"1.0"},"version":"1.0","premultipliedAlpha":true},"buffers":{"buffer":{"byteLength":264288,"uri":"data:application/octet-stream;base64,","type":"arraybuffer"}},"bufferViews":{"bufferView_0":{"buffer":"buffer","byteLength":243936,"byteOffset":0,"target":34962},"bufferView_1":{"buffer":"buffer","byteLength":20352,"byteOffset":243936,"target":34963}},"extensionsUsed":[],"images":{},"materials":{"None":{"technique":"technique0","values":{"ambient":[0,0,0,1],"diffuse":[0.8,0.8,0.8,1],"emission":[0,0,0,1],"specular":[0.8,0.8,0.8,1],"shininess":0,"transparency":1}}},"meshes":{"pantasma02-Mesh":{"name":"pantasma02-Mesh","primitives":[{"attributes":{"POSITION":"accessor_0","NORMAL":"accessor_1"},"indices":"accessor_2","material":"None","mode":4}]}},"nodes":{"pantasma02":{"name":"pantasma02","meshes":["pantasma02-Mesh"],"children":[],"matrix":[1,0,0,0,0,1,0,0,0,0,1,0,0,0,0,1]}},"samplers":{},"scene":"scene","scenes":{"scene":{"nodes":["pantasma02"]}},"textures":{},"animations":{},"cameras":{},"programs":{"program0":{"attributes":["a_position","a_normal"],"fragmentShader":"fragmentShader0","vertexShader":"vertexShader0"}},"shaders":{"vertexShader0":{"type":35633,"uri":"data:text/plain;base64,"},"fragmentShader0":{"type":35632,"uri":"data:text/plain;base64,"}},"skins":{},"techniques":{"technique0":{"attributes":{"a_position":"position","a_normal":"normal"},"parameters":{"modelViewMatrix":{"semantic":"MODELVIEW","type":35676},"projectionMatrix":{"semantic":"PROJECTION","type":35676},"normalMatrix":{"semantic":"MODELVIEWINVERSETRANSPOSE","type":35675},"ambient":{"type":35666},"diffuse":{"type":35666},"emission":{"type":35666},"specular":{"type":35666},"shininess":{"type":5126},"transparency":{"type":5126},"position":{"semantic":"POSITION","type":35665},"normal":{"semantic":"NORMAL","type":35665}},"program":"program0","states":{"enable":[2884,2929]},"uniforms":{"u_modelViewMatrix":"modelViewMatrix","u_projectionMatrix":"projectionMatrix","u_normalMatrix":"normalMatrix","u_ambient":"ambient","u_diffuse":"diffuse","u_emission":"emission","u_specular":"specular","u_shininess":"shininess","u_transparency":"transparency"}}}}
