{
  "accessors": [
    {
      "name": "ChamferBox017_1_positions",
      "componentType": 5126,
      "count": 33932,
      "min": [
        -56.34159851074219,
        -1.7615000009536743,
        -49.65370178222656
      ],
      "max": [
        55.4385986328125,
        73.97669982910156,
        51.01850128173828
      ],
      "type": "VEC3",
      "bufferView": 0,
      "byteOffset": 0
    },
    {
      "name": "ChamferBox017_1_normals",
      "componentType": 5126,
      "count": 33932,
      "min": [
        -1,
        -1,
        -1
      ],
      "max": [
        1,
        1,
        1
      ],
      "type": "VEC3",
      "bufferView": 0,
      "byteOffset": 407184
    },
    {
      "name": "ChamferBox017_1_texcoords",
      "componentType": 5126,
      "count": 33932,
      "min": [
        0,
        0
      ],
      "max": [
        1,
        1
      ],
      "type": "VEC2",
      "bufferView": 1,
      "byteOffset": 0
    },
    {
      "name": "ChamferBox017_1_0_indices",
      "componentType": 5123,
      "count": 54162,
      "min": [
        0
      ],
      "max": [
        33386
      ],
      "type": "SCALAR",
      "bufferView": 2,
      "byteOffset": 0
    },
    {
      "name": "ChamferBox017_1_1_indices",
      "componentType": 5123,
      "count": 1719,
      "min": [
        3148
      ],
      "max": [
        33931
      ],
      "type": "SCALAR",
      "bufferView": 2,
      "byteOffset": 108324
    },
    {
      "name": "ChamferBox017_1_2_indices",
      "componentType": 5123,
      "count": 6,
      "min": [
        3642
      ],
      "max": [
        3645
      ],
      "type": "SCALAR",
      "bufferView": 2,
      "byteOffset": 111764
    },
    {
      "name": "ChamferBox017_1_3_indices",
      "componentType": 5123,
      "count": 6,
      "min": [
        33920
      ],
      "max": [
        33923
      ],
      "type": "SCALAR",
      "bufferView": 2,
      "byteOffset": 111776
    }
  ],
  "asset": {
    "generator": "obj2gltf",
    "version": "2.0"
  },
  "buffers": [
    {
      "name": "ComputerLaptop_1285",
      "byteLength": 1197612,
      "uri": "data:application/octet-stream;base64,"
    }
  ],
  "bufferViews": [
    {
      "name": "bufferView_0",
      "buffer": 0,
      "byteLength": 814368,
      "byteOffset": 0,
      "byteStride": 12,
      "target": 34962
    },
    {
      "name": "bufferView_1",
      "buffer": 0,
      "byteLength": 271456,
      "byteOffset": 814368,
      "byteStride": 8,
      "target": 34962
    },
    {
      "name": "bufferView_2",
      "buffer": 0,
      "byteLength": 111788,
      "byteOffset": 1085824,
      "target": 34963
    }
  ],
  "materials": [
    {
      "name": "03___Default",
      "pbrMetallicRoughness": {
        "baseColorFactor": [
          0.0314,
          0.0314,
          0.0314,
          1
        ],
        "metallicFactor": 0,
        "roughnessFactor": 0.99
      },
      "emissiveFactor": [
        0,
        0,
        0
      ],
      "alphaMode": "OPAQUE",
      "doubleSided": false
    },
    {
      "name": "05___Default",
      "pbrMetallicRoughness": {
        "baseColorFactor": [
          0.5882,
          0.5882,
          0.5882,
          1
        ],
        "metallicFactor": 0,
        "roughnessFactor": 0.99
      },
      "emissiveFactor": [
        0,
        0,
        0
      ],
      "alphaMode": "OPAQUE",
      "doubleSided": false
    },
    {
      "name": "01___Default",
      "pbrMetallicRoughness": {
        "baseColorFactor": [
          0.2941,
          0.2941,
          0.2941,
          1
        ],
        "metallicFactor": 0,
        "roughnessFactor": 0.99
      },
      "emissiveFactor": [
        0,
        0,
        0
      ],
      "alphaMode": "OPAQUE",
      "doubleSided": false
    },
    {
      "name": "04___Default",
      "pbrMetallicRoughness": {
        "baseColorFactor": [
          0.0118,
          0.0118,
          0.0118,
          1
        ],
        "metallicFactor": 0,
        "roughnessFactor": 0.99
      },
      "emissiveFactor": [
        0,
        0,
        0
      ],
      "alphaMode": "OPAQUE",
      "doubleSided": false
    }
  ],
  "meshes": [
    {
      "name": "ChamferBox017_1",
      "primitives": [
        {
          "attributes": {
            "POSITION": 0,
            "NORMAL": 1,
            "TEXCOORD_0": 2
          },
          "indices": 3,
          "material": 0,
          "mode": 4
        },
        {
          "attributes": {
            "POSITION": 0,
            "NORMAL": 1,
            "TEXCOORD_0": 2
          },
          "indices": 4,
          "material": 1,
          "mode": 4
        },
        {
          "attributes": {
            "POSITION": 0,
            "NORMAL": 1,
            "TEXCOORD_0": 2
          },
          "indices": 5,
          "material": 2,
          "mode": 4
        },
        {
          "attributes": {
            "POSITION": 0,
            "NORMAL": 1,
            "TEXCOORD_0": 2
          },
          "indices": 6,
          "material": 3,
          "mode": 4
        }
      ]
    }
  ],
  "nodes": [
    {
      "name": "ChamferBox017",
      "mesh": 0
    }
  ],
  "scene": 0,
  "scenes": [
    {
      "nodes": [
        0
      ]
    }
  ]
}
