{
  "accessors": [
    {
      "name": "skull_1_positions",
      "componentType": 5126,
      "count": 3441,
      "min": [
        -3.187299966812134,
        1.5416699647903442,
        -4.759439945220947
      ],
      "max": [
        2.039910078048706,
        7.317880153656006,
        1.377020001411438
      ],
      "type": "VEC3",
      "bufferView": 0,
      "byteOffset": 0
    },
    {
      "name": "skull_1_normals",
      "componentType": 5126,
      "count": 3441,
      "min": [
        -0.9999380111694336,
        -0.9999560117721558,
        -0.9982799887657166
      ],
      "max": [
        0.9978539943695068,
        0.9998549818992615,
        0.9996610283851624
      ],
      "type": "VEC3",
      "bufferView": 0,
      "byteOffset": 73464
    },
    {
      "name": "skull_1_0_indices",
      "componentType": 5123,
      "count": 16605,
      "min": [
        0
      ],
      "max": [
        3440
      ],
      "type": "SCALAR",
      "bufferView": 1,
      "byteOffset": 0
    },
    {
      "name": "uteeth_1_positions",
      "componentType": 5126,
      "count": 864,
      "min": [
        -1.0072799921035767,
        1.3350000381469727,
        -0.7379469871520996
      ],
      "max": [
        0.9964969754219055,
        2.092989921569824,
        1.2848999500274658
      ],
      "type": "VEC3",
      "bufferView": 0,
      "byteOffset": 41292
    },
    {
      "name": "uteeth_1_normals",
      "componentType": 5126,
      "count": 864,
      "min": [
        -0.9995729923248291,
        -0.9983069896697998,
        -0.9963489770889282
      ],
      "max": [
        0.9999330043792725,
        0.9283570051193237,
        0.9991689920425415
      ],
      "type": "VEC3",
      "bufferView": 0,
      "byteOffset": 114756
    },
    {
      "name": "uteeth_1_0_indices",
      "componentType": 5123,
      "count": 3258,
      "min": [
        0
      ],
      "max": [
        863
      ],
      "type": "SCALAR",
      "bufferView": 1,
      "byteOffset": 33212
    },
    {
      "name": "jaw_1_positions",
      "componentType": 5126,
      "count": 1184,
      "min": [
        -2.1534299850463867,
        -0.0009000300196930766,
        -1.765239953994751
      ],
      "max": [
        1.502210021018982,
        3.05676007270813,
        1.189869999885559
      ],
      "type": "VEC3",
      "bufferView": 0,
      "byteOffset": 51660
    },
    {
      "name": "jaw_1_normals",
      "componentType": 5126,
      "count": 1184,
      "min": [
        -0.9996230006217957,
        -0.9924539923667908,
        -0.9960830211639404
      ],
      "max": [
        0.9999549984931946,
        0.9886360168457031,
        0.9995329976081848
      ],
      "type": "VEC3",
      "bufferView": 0,
      "byteOffset": 125124
    },
    {
      "name": "jaw_1_0_indices",
      "componentType": 5123,
      "count": 6198,
      "min": [
        0
      ],
      "max": [
        1183
      ],
      "type": "SCALAR",
      "bufferView": 1,
      "byteOffset": 39728
    },
    {
      "name": "lteeth_1_positions",
      "componentType": 5126,
      "count": 633,
      "min": [
        -1.1152700185775757,
        0.9805560111999512,
        -0.6930050253868103
      ],
      "max": [
        1.0496200323104858,
        1.6754900217056274,
        1.2572499513626099
      ],
      "type": "VEC3",
      "bufferView": 0,
      "byteOffset": 65868
    },
    {
      "name": "lteeth_1_normals",
      "componentType": 5126,
      "count": 633,
      "min": [
        -0.998714029788971,
        -0.9981619715690613,
        -0.9569240212440491
      ],
      "max": [
        0.9990599751472473,
        0.997573971748352,
        0.9988420009613037
      ],
      "type": "VEC3",
      "bufferView": 0,
      "byteOffset": 139332
    },
    {
      "name": "lteeth_1_0_indices",
      "componentType": 5123,
      "count": 2550,
      "min": [
        0
      ],
      "max": [
        632
      ],
      "type": "SCALAR",
      "bufferView": 1,
      "byteOffset": 52124
    }
  ],
  "asset": {
    "generator": "obj2gltf",
    "version": "2.0"
  },
  "buffers": [
    {
      "name": "skull",
      "byteLength": 204152,
      "uri": "data:application/octet-stream;base64,"
    }
  ],
  "bufferViews": [
    {
      "name": "bufferView_0",
      "buffer": 0,
      "byteLength": 146928,
      "byteOffset": 0,
      "byteStride": 12,
      "target": 34962
    },
    {
      "name": "bufferView_1",
      "buffer": 0,
      "byteLength": 57224,
      "byteOffset": 146928,
      "target": 34963
    }
  ],
  "materials": [
    {
      "name": "Dflt0",
      "pbrMetallicRoughness": {
        "baseColorFactor": [
          0.929412,
          0.862745,
          0.772549,
          1
        ],
        "metallicFactor": 0,
        "roughnessFactor": 0.99183383
      },
      "emissiveFactor": [
        0,
        0,
        0
      ],
      "alphaMode": "OPAQUE",
      "doubleSided": false
    },
    {
      "name": "Dflt1",
      "pbrMetallicRoughness": {
        "baseColorFactor": [
          0.929412,
          0.862745,
          0.772549,
          1
        ],
        "metallicFactor": 0,
        "roughnessFactor": 0.99183383
      },
      "emissiveFactor": [
        0,
        0,
        0
      ],
      "alphaMode": "OPAQUE",
      "doubleSided": false
    },
    {
      "name": "Dflt2",
      "pbrMetallicRoughness": {
        "baseColorFactor": [
          0.929412,
          0.862745,
          0.772549,
          1
        ],
        "metallicFactor": 0,
        "roughnessFactor": 0.99183383
      },
      "emissiveFactor": [
        0,
        0,
        0
      ],
      "alphaMode": "OPAQUE",
      "doubleSided": false
    },
    {
      "name": "Dflt3",
      "pbrMetallicRoughness": {
        "baseColorFactor": [
          0.929412,
          0.862745,
          0.772549,
          1
        ],
        "metallicFactor": 0,
        "roughnessFactor": 0.99183383
      },
      "emissiveFactor": [
        0,
        0,
        0
      ],
      "alphaMode": "OPAQUE",
      "doubleSided": false
    }
  ],
  "meshes": [
    {
      "name": "skull_1",
      "primitives": [
        {
          "attributes": {
            "POSITION": 0,
            "NORMAL": 1
          },
          "indices": 2,
          "material": 0,
          "mode": 4
        }
      ]
    },
    {
      "name": "uteeth_1",
      "primitives": [
        {
          "attributes": {
            "POSITION": 3,
            "NORMAL": 4
          },
          "indices": 5,
          "material": 1,
          "mode": 4
        }
      ]
    },
    {
      "name": "jaw_1",
      "primitives": [
        {
          "attributes": {
            "POSITION": 6,
            "NORMAL": 7
          },
          "indices": 8,
          "material": 2,
          "mode": 4
        }
      ]
    },
    {
      "name": "lteeth_1",
      "primitives": [
        {
          "attributes": {
            "POSITION": 9,
            "NORMAL": 10
          },
          "indices": 11,
          "material": 3,
          "mode": 4
        }
      ]
    }
  ],
  "nodes": [
    {
      "name": "skull",
      "mesh": 0
    },
    {
      "name": "uteeth",
      "mesh": 1
    },
    {
      "name": "jaw",
      "mesh": 2
    },
    {
      "name": "lteeth",
      "mesh": 3
    }
  ],
  "scene": 0,
  "scenes": [
    {
      "nodes": [
        0,
        1,
        2,
        3
      ]
    }
  ]
}
