{
  "accessors": [
    {
      "bufferView": 1,
      "componentType": 5126,
      "count": 65532,
      "max": [
        244.01739501953125,
        46.067794799804688,
        165.43173217773438
      ],
      "min": [
        14.258392333984375,
        1.3994636535644531,
        0
      ],
      "type": "VEC3"
    },
    {
      "bufferView": 1,
      "byteOffset": 786384,
      "componentType": 5126,
      "count": 65532,
      "max": [
        0.99999696016311646,
        0.99999302625656128,
        0.99949455261230469
      ],
      "min": [
        -0.99987173080444336,
        -0.99999690055847168,
        -0.99999368190765381
      ],
      "type": "VEC3"
    },
    {
      "bufferView": 0,
      "componentType": 5125,
      "count": 357327,
      "max": [
        65531
      ],
      "min": [
        0
      ],
      "type": "SCALAR"
    },
    {
      "bufferView": 1,
      "byteOffset": 1572768,
      "componentType": 5126,
      "count": 65532,
      "max": [
        244.47206115722656,
        45.9080810546875,
        165.12673950195312
      ],
      "min": [
        25.861907958984375,
        9.3107013702392578,
        15.488922119140625
      ],
      "type": "VEC3"
    },
    {
      "bufferView": 1,
      "byteOffset": 2359152,
      "componentType": 5126,
      "count": 65532,
      "max": [
        0.9999808669090271,
        0.99991387128829956,
        0.99999618530273438
      ],
      "min": [
        -0.99986106157302856,
        -0.99999731779098511,
        -0.99995166063308716
      ],
      "type": "VEC3"
    },
    {
      "bufferView": 0,
      "byteOffset": 1429308,
      "componentType": 5125,
      "count": 335412,
      "max": [
        65531
      ],
      "min": [
        0
      ],
      "type": "SCALAR"
    },
    {
      "bufferView": 1,
      "byteOffset": 3145536,
      "componentType": 5126,
      "count": 65532,
      "max": [
        233.40194702148438,
        35.452114105224609,
        70.866424560546875
      ],
      "min": [
        136.62017822265625,
        12.16301155090332,
        33.94488525390625
      ],
      "type": "VEC3"
    },
    {
      "bufferView": 1,
      "byteOffset": 3931920,
      "componentType": 5126,
      "count": 65532,
      "max": [
        0.99999779462814331,
        0.99999910593032837,
        0.99999618530273438
      ],
      "min": [
        -0.99998712539672852,
        -0.99999803304672241,
        -0.99988794326782227
      ],
      "type": "VEC3"
    },
    {
      "bufferView": 0,
      "byteOffset": 2770956,
      "componentType": 5125,
      "count": 347715,
      "max": [
        65531
      ],
      "min": [
        0
      ],
      "type": "SCALAR"
    },
    {
      "bufferView": 1,
      "byteOffset": 4718304,
      "componentType": 5126,
      "count": 65532,
      "max": [
        173.539306640625,
        30.42327880859375,
        164.57766723632812
      ],
      "min": [
        29.293838500976562,
        12.042627334594727,
        60.843780517578125
      ],
      "type": "VEC3"
    },
    {
      "bufferView": 1,
      "byteOffset": 5504688,
      "componentType": 5126,
      "count": 65532,
      "max": [
        0.99986910820007324,
        0.99999964237213135,
        0.99589109420776367
      ],
      "min": [
        -0.9999193549156189,
        -0.99999803304672241,
        -0.99995344877243042
      ],
      "type": "VEC3"
    },
    {
      "bufferView": 0,
      "byteOffset": 4161816,
      "componentType": 5125,
      "count": 363915,
      "max": [
        65531
      ],
      "min": [
        0
      ],
      "type": "SCALAR"
    },
    {
      "bufferView": 1,
      "byteOffset": 6291072,
      "componentType": 5126,
      "count": 65532,
      "max": [
        129.50077819824219,
        30.041439056396484,
        127.03457641601562
      ],
      "min": [
        36.053787231445312,
        13.098194122314453,
        86.948333740234375
      ],
      "type": "VEC3"
    },
    {
      "bufferView": 1,
      "byteOffset": 7077456,
      "componentType": 5126,
      "count": 65532,
      "max": [
        0.99990165233612061,
        0.9999854564666748,
        0.97178143262863159
      ],
      "min": [
        -0.99997192621231079,
        -0.99999499320983887,
        -0.99920713901519775
      ],
      "type": "VEC3"
    },
    {
      "bufferView": 0,
      "byteOffset": 5617476,
      "componentType": 5125,
      "count": 363537,
      "max": [
        65531
      ],
      "min": [
        0
      ],
      "type": "SCALAR"
    },
    {
      "bufferView": 1,
      "byteOffset": 7863840,
      "componentType": 5126,
      "count": 65532,
      "max": [
        80.715255737304688,
        28.822586059570312,
        165.01486206054688
      ],
      "min": [
        0.5308837890625,
        0,
        115.69204711914062
      ],
      "type": "VEC3"
    },
    {
      "bufferView": 1,
      "byteOffset": 8650224,
      "componentType": 5126,
      "count": 65532,
      "max": [
        0.9999966025352478,
        0.99999439716339111,
        0.999961256980896
      ],
      "min": [
        -0.99999862909317017,
        -0.99998724460601807,
        -0.9999808669090271
      ],
      "type": "VEC3"
    },
    {
      "bufferView": 0,
      "byteOffset": 7071624,
      "componentType": 5125,
      "count": 333393,
      "max": [
        65531
      ],
      "min": [
        0
      ],
      "type": "SCALAR"
    },
    {
      "bufferView": 1,
      "byteOffset": 9436608,
      "componentType": 5126,
      "count": 65532,
      "max": [
        62.7823486328125,
        26.955131530761719,
        164.48361206054688
      ],
      "min": [
        0,
        0.022317886352539062,
        128.40957641601562
      ],
      "type": "VEC3"
    },
    {
      "bufferView": 1,
      "byteOffset": 10222992,
      "componentType": 5126,
      "count": 65532,
      "max": [
        0.99995207786560059,
        0.99999785423278809,
        0.99999874830245972
      ],
      "min": [
        -0.99991214275360107,
        -0.99998080730438232,
        -0.99987572431564331
      ],
      "type": "VEC3"
    },
    {
      "bufferView": 0,
      "byteOffset": 8405196,
      "componentType": 5125,
      "count": 337512,
      "max": [
        65531
      ],
      "min": [
        0
      ],
      "type": "SCALAR"
    },
    {
      "bufferView": 1,
      "byteOffset": 11009376,
      "componentType": 5126,
      "count": 16483,
      "max": [
        44.088241577148438,
        25.653781890869141,
        164.48562622070312
      ],
      "min": [
        10.34765625,
        0.010229110717773438,
        149.71255493164062
      ],
      "type": "VEC3"
    },
    {
      "bufferView": 1,
      "byteOffset": 11207172,
      "componentType": 5126,
      "count": 16483,
      "max": [
        0.99980789422988892,
        0.99997389316558838,
        0.99993282556533813
      ],
      "min": [
        -1,
        -0.99996840953826904,
        -0.99586057662963867
      ],
      "type": "VEC3"
    },
    {
      "bufferView": 0,
      "byteOffset": 9755244,
      "componentType": 5125,
      "count": 72852,
      "max": [
        16482
      ],
      "min": [
        0
      ],
      "type": "SCALAR"
    }
  ],
  "asset": {
    "generator": "Sketchfab (OSG glTF plugin)",
    "version": "2.0"
  },
  "bufferViews": [
    {
      "buffer": 0,
      "byteLength": 10046652,
      "byteOffset": 0,
      "name": "ScalarBufferView",
      "target": 34963
    },
    {
      "buffer": 0,
      "byteLength": 11404968,
      "byteOffset": 10046652,
      "byteStride": 12,
      "name": "Vec4BufferView",
      "target": 34962
    }
  ],
  "buffers": [
    {
      "byteLength": 21451620,
      "uri": "scene.bin"
    }
  ],
  "materials": [
    {
      "doubleSided": true,
      "emissiveFactor": [
        0,
        0,
        0
      ],
      "name": "Scene - Root",
      "pbrMetallicRoughness": {
        "baseColorFactor": [
          1,
          1,
          1,
          1
        ],
        "metallicFactor": 0,
        "roughnessFactor": 0.59999999999999998
      }
    }
  ],
  "meshes": [
    {
      "primitives": [
        {
          "attributes": {
            "NORMAL": 1,
            "POSITION": 0
          },
          "indices": 2,
          "material": 0,
          "mode": 4
        },
        {
          "attributes": {
            "NORMAL": 4,
            "POSITION": 3
          },
          "indices": 5,
          "material": 0,
          "mode": 4
        },
        {
          "attributes": {
            "NORMAL": 7,
            "POSITION": 6
          },
          "indices": 8,
          "material": 0,
          "mode": 4
        },
        {
          "attributes": {
            "NORMAL": 10,
            "POSITION": 9
          },
          "indices": 11,
          "material": 0,
          "mode": 4
        },
        {
          "attributes": {
            "NORMAL": 13,
            "POSITION": 12
          },
          "indices": 14,
          "material": 0,
          "mode": 4
        },
        {
          "attributes": {
            "NORMAL": 16,
            "POSITION": 15
          },
          "indices": 17,
          "material": 0,
          "mode": 4
        },
        {
          "attributes": {
            "NORMAL": 19,
            "POSITION": 18
          },
          "indices": 20,
          "material": 0,
          "mode": 4
        },
        {
          "attributes": {
            "NORMAL": 22,
            "POSITION": 21
          },
          "indices": 23,
          "material": 0,
          "mode": 4
        }
      ]
    }
  ],
  "nodes": [
    {
      "children": [
        1
      ],
      "name": "RootNode (gltf orientation matrix)",
      "rotation": [
        -0.70710678118654746,
        -0,
        -0,
        0.70710678118654757
      ]
    },
    {
      "children": [
        2
      ],
      "name": "RootNode (model correction matrix)"
    },
    {
      "children": [
        3
      ],
      "matrix": [
        1,
        0,
        0,
        0,
        0,
        1,
        0,
        0,
        0,
        0,
        1,
        0,
        -186.92231750488281,
        19.002365112304688,
        406.87380981445312,
        1
      ],
      "name": "Humerus.stl.cleaner.materialmerger.gles"
    },
    {
      "mesh": 0,
      "name": ""
    }
  ],
  "scene": 0,
  "scenes": [
    {
      "name": "OSG_Scene",
      "nodes": [
        0
      ]
    }
  ]
}

